<?xml version="1.0"?>
<svg version="1.1" xmlns="http://www.w3.org/2000/svg" width="200px" height="200px"><path fill="#094d10" d="M163.69921875,140.8515625l0,0.10546875l0-0.10546875q-0.03515625,0-0.123046875,0.333984375t-0.17578125,0.685546875t-0.123046875,0.421875q-0.3515625,0.59765625-1.16015625,0.59765625q-0.3515625,0-0.4921875-0.0703125q-0.28125-0.140625-0.66796875-0.140625q-0.45703125,0-0.9140625,0.28125q-0.140625,0.0703125-0.38671875,0.0703125q-0.421875,0-0.421875-0.28125q0-0.03515625,0.03515625-0.10546875t0.03515625-0.10546875q-0.10546875,0-0.333984375,0.10546875t-0.369140625,0.10546875q-0.0703125,0.0703125-0.2109375,0.0703125q-0.0703125,0-0.193359375-0.03515625t-0.193359375-0.03515625l-0.140625,0l-0.2109375,0q-0.17578125,0-0.5625-0.0703125t-0.59765625-0.0703125l-0.2109375,0l-0.84375,0q-0.703125,0-0.87890625-0.24609375q-0.94921875,0.38671875-1.08984375,0.38671875q-0.0703125,0-0.17578125-0.03515625t-0.17578125-0.03515625q-0.421875,0.2109375-1.16015625,0.2109375q-0.17578125,0-2.42578125-0.28125l-0.2109375,0l-0.80859375,0q-0.59765625,0-0.80859375-0.140625q-0.52734375,0.3515625-1.65234375,0.3515625l-0.6328125,0q-1.08984375,0-1.65234375-0.0703125l-0.73828125,0l-0.3515625,0q-0.140625,0.0703125-0.3515625,0.0703125l-0.421875,0q-0.140625,0-0.421875,0.10546875t-0.45703125,0.10546875q-0.03515625,0-0.10546875-0.03515625t-0.10546875-0.03515625q-0.17578125-0.0703125-0.404296875-0.087890625t-0.333984375-0.052734375q-1.125-0.28125-1.37109375-0.28125l-0.140625,0q-1.265625,0.2109375-1.65234375,0.2109375q-1.125,0-1.51171875-0.66796875q-0.28125-0.38671875-0.28125-1.125q0-0.03515625-0.17578125-0.333984375t-0.17578125-0.474609375q0-0.140625,0.0703125-0.2109375q-0.73828125-0.10546875-0.73828125-0.59765625q0-0.140625,0.31640625-0.6328125q0.140625-0.17578125,0.421875-0.509765625t0.369140625-0.544921875t0.123046875-0.59765625q-0.0703125-0.28125-0.0703125-0.94921875q0-0.87890625,0.3515625-1.23046875q0.2109375-0.2109375,0.66796875-0.228515625t0.5625-0.052734375l0.140625,0q0.6328125,0,0.94921875,0.2109375q0.03515625,0,0.140625,0.03515625t0.140625,0.03515625q0.2109375,0,0.703125-0.140625t0.73828125-0.140625q0.2109375,0,0.3515625,0.0703125q0.31640625-0.2109375,0.31640625-0.984375q0-0.31640625-0.10546875-0.52734375q-0.5625-0.5625-1.1953125-1.51171875q-0.73828125,0.10546875-0.73828125-0.4921875l0-0.5625l0-0.24609375q-0.10546875-0.10546875-0.24609375-0.369140625t-0.24609375-0.333984375q-0.59765625-0.59765625-1.01953125-1.58203125q-0.4921875-0.5625-1.86328125-2.8828125q-0.4921875-0.4921875-0.80859375-1.01953125q-0.24609375-0.3515625-0.28125-0.3515625q-0.10546875,0-0.421875,0.2109375q-0.03515625,0-0.0703125,0.03515625t-0.0703125,0.03515625q-0.3515625,0-0.3515625-0.3515625l0-0.0703125q0-0.2109375,0.421875-0.6328125q-1.0546875-1.40625-1.30078125-1.96875q-0.0703125-0.0703125-0.17578125-0.28125t-0.17578125-0.28125q-0.38671875,0.24609375-0.9140625,0.87890625t-0.59765625,0.703125q-1.08984375,0.94921875-1.72265625,0.87890625q-0.2109375,0-0.404296875,0.140625t-0.193359375,0.28125q0,0.03515625,0.03515625,0.0703125t0.03515625,0.0703125q0.0703125,0.140625,0.0703125,0.28125q0,0.2109375-0.228515625,0.369140625t-0.59765625,0.263671875t-0.474609375,0.17578125q-0.38671875,0.24609375-0.509765625,0.3515625t-0.263671875,0.298828125t-0.28125,0.544921875q-0.140625,0.421875-0.140625,0.80859375l0,0.94921875l0,0.421875q0.140625,0.6328125,0.140625,2.07421875q0.28125,1.265625,0.28125,2.25l0,0.28125q0.28125,0.984375,0.28125,1.72265625q0.0703125,0.24609375,0.31640625,0.333984375t0.6328125,0.123046875t0.5625,0.10546875q0.2109375,0.10546875,0.59765625,0.228515625t0.4921875,0.158203125q0.28125-0.28125,0.5625-0.28125l0.0703125,0l0.28125,0q0.17578125,0,0.45703125-0.123046875t0.4921875-0.123046875l0.28125,0q1.7578125,0,1.8984375,1.08984375l0,0.2109375q0,0.38671875-0.10546875,0.59765625q0,0.140625,0.140625,0.28125q0.0703125,0.10546875,0.10546875,0.140625q0.0703125,0.140625,0.0703125,0.3515625q0,0.28125-0.0703125,0.421875q-0.4921875,1.4765625-0.52734375,1.828125q0.0703125,0.2109375,0.0703125,0.7734375q0.421875-0.2109375,0.73828125-0.2109375q0.2109375,0,0.2109375,0.140625q0,0.3515625-0.5625,0.73828125q-0.0703125,0.03515625-0.439453125,0.87890625t-0.931640625,0.7734375q-0.31640625,0.2109375-0.73828125,0.2109375l-0.140625,0q-0.140625-0.0703125-0.28125-0.0703125q-0.0703125,0-0.228515625,0.03515625t-0.263671875,0.03515625t-0.333984375-0.0703125t-0.333984375-0.0703125l-0.0703125,0q-0.2109375,0.140625-0.5625,0.140625q-0.24609375,0-0.80859375-0.140625q-0.10546875,0-0.3515625,0.03515625t-0.3515625,0.03515625q-0.17578125-0.03515625-0.984375-0.052734375t-1.0546875-0.228515625l-0.2109375,0q-0.5625,0-0.6328125-0.0703125q-0.0703125,0-0.263671875,0.03515625t-0.263671875,0.03515625q-0.28125,0-0.5625-0.140625q-0.140625,0.0703125-0.3515625,0.0703125l-0.52734375,0l-0.28125,0l-0.0703125,0q-0.10546875,0-0.24609375-0.087890625t-0.24609375-0.087890625l-0.140625,0q-0.52734375,0.38671875-1.37109375,0.38671875q-0.421875,0-0.73828125-0.2109375q-0.0703125,0.0703125-0.28125,0.0703125q-0.10546875,0-0.3515625-0.03515625t-0.3515625-0.03515625l-0.2109375,0l-0.140625,0q-0.52734375,0-0.87890625-0.17578125q-0.59765625,0.24609375-1.51171875,0.24609375q-0.66796875,0-0.87890625-0.0703125q-0.10546875,0-0.31640625-0.03515625t-0.31640625-0.03515625q-0.4921875,0-1.546875,0.140625t-1.546875,0.140625q-0.59765625,0-0.87890625-0.0703125q-0.10546875,0-0.38671875,0.03515625t-0.45703125,0.03515625q-0.703125,0-1.01953125-0.2109375q-0.31640625-0.03515625-0.84375,0.193359375t-0.73828125,0.228515625l-0.140625,0l-0.38671875-0.2109375l-0.421875-0.2109375l-0.2109375,0l-0.2109375,0q-0.24609375,0-0.4921875-0.24609375q-0.28125-0.28125-0.28125-0.84375q0-0.59765625,0.140625-1.01953125q-0.38671875,0.28125-0.73828125,0.28125q-0.2109375,0-0.2109375-0.3515625q0-0.6328125,0.3515625-1.51171875q0.10546875-0.24609375,0.298828125-0.720703125t0.298828125-0.720703125q0.0703125-0.140625,0.0703125-0.3515625l0-0.3515625l0-0.2109375l0-0.45703125q0-0.4921875,0.3515625-0.84375q0.31640625-0.31640625,1.01953125-0.31640625q0.45703125,0,0.984375,0.17578125q0.0703125,0.0703125,0.2109375,0.0703125t0.421875-0.123046875t0.45703125-0.123046875l0.140625,0q0.0703125,0,0.421875,0.17578125q0.2109375-0.31640625,0.66796875-0.31640625l0.193359375,0l0.10546875,0t0.087890625-0.03515625t0.0703125-0.052734375t0.123046875-0.0703125t0.193359375-0.123046875q0.10546875-0.28125,0.59765625-0.28125q0.2109375,0,0.28125,0.0703125t0.140625,0.193359375t0.123046875,0.17578125t0.158203125,0.052734375q0.0703125,0,0.2109375-0.0703125q-0.2109375-0.2109375-0.2109375-0.5625q0-0.38671875,0.333984375-1.423828125t0.263671875-1.388671875q-0.421875,0.2109375-0.66796875,0.2109375q-0.3515625,0-0.3515625-0.3515625q0-0.52734375,0.5625-1.08984375q0.45703125-0.38671875,0.5625-0.9140625q0.03515625-0.10546875,0.03515625-0.17578125l0-0.703125l0-1.01953125l0-0.4921875q-0.0703125-0.28125-0.0703125-0.94921875t0.17578125-2.07421875t0.17578125-2.14453125q0-0.59765625-0.0703125-0.87890625q-0.2109375,0.0703125-0.52734375,0.0703125q-0.6328125,0-0.6328125-0.3515625q0-0.24609375,0.4921875-0.52734375q0.52734375-0.2109375,0.52734375-0.4921875t0.0703125-0.5625q-0.140625-0.5625-0.140625-1.01953125l0-0.4921875q0-0.87890625,0.140625-1.44140625l0-0.59765625q0-1.01953125,0.0703125-1.44140625q-0.140625-0.84375-0.140625-1.65234375q0-0.703125,0.0703125-0.9140625q-0.2109375-0.73828125-0.2109375-1.828125l0-0.3515625l0-0.3515625q0-0.17578125,0.03515625-0.6328125t0.03515625-0.66796875q0-0.421875-0.0703125-0.5625q-0.24609375-0.3515625-0.24609375-1.30078125q0-0.17578125,0.052734375-0.421875t0.052734375-0.31640625t-0.052734375-0.2109375t-0.052734375-0.2109375q0-0.2109375,0.087890625-0.685546875t0.087890625-0.685546875l0-0.2109375q-0.140625-0.28125-0.31640625-1.51171875q-0.03515625-0.10546875-0.03515625-0.2109375q0-0.2109375-0.2109375-0.28125l-0.10546875,0q-0.140625,0.0703125-0.580078125,0.140625t-0.509765625,0.0703125l-0.2109375,0q-0.52734375,0-0.703125-0.3515625q-0.140625,0-0.31640625-0.0703125t-0.28125-0.0703125q-0.0703125,0-0.2109375,0.0703125l-0.421875,0q-0.140625,0-0.263671875-0.052734375t-0.24609375-0.17578125t-0.193359375-0.158203125q-0.28125,0.0703125-1.01953125,0.0703125q-0.140625,0-0.404296875-0.0703125t-0.404296875-0.0703125q-0.03515625,0-0.0703125,0.03515625t-0.0703125,0.03515625q-0.31640625,0-0.4921875-0.4921875q-0.4921875-0.31640625-0.4921875-2.671875l0-1.16015625q-0.4921875,0.24609375-0.59765625,0.24609375q-0.140625,0-0.2109375-0.0703125t-0.0703125-0.24609375q0-0.28125,0.5625-0.84375q0.140625-0.140625,0.140625-0.73828125l0-0.421875q0-0.80859375,0.38671875-1.01953125q0.3515625-0.3515625,0.7734375-0.3515625q0.24609375,0,0.52734375,0.140625q0.0703125-0.0703125,0.28125-0.0703125l0.3515625,0l0.2109375,0l0.2109375,0q0.31640625,0,0.45703125,0.0703125q0.2109375,0.03515625,0.52734375-0.10546875t0.52734375-0.10546875q0.10546875,0,0.24609375,0.03515625t0.2109375,0.03515625q0.140625,0,0.28125-0.0703125l0.5625,0l1.23046875,0q0.2109375,0,0.6328125,0.10546875t0.52734375,0.10546875q0.17578125,0,0.45703125-0.03515625t0.45703125-0.03515625q0.140625,0,0.3515625,0.0703125t0.31640625,0.0703125l0.140625,0q0.28125,0,0.421875,0.0703125l0.73828125,0q0.10546875-0.03515625,0.720703125-0.298828125t0.931640625-0.263671875q0.3515625,0,0.4921875,0.140625l0.2109375,0q0.2109375,0,0.66796875,0.0703125t0.703125,0.0703125q0.17578125,0,0.439453125,0.123046875t0.369140625,0.158203125q0.0703125,0,0.24609375-0.03515625t0.24609375-0.03515625l0.140625,0q0.84375-0.421875,1.37109375-0.421875q0.28125,0,0.421875,0.0703125l0.38671875,0q0.84375,0,1.125,0.28125q0.2109375-0.140625,0.73828125-0.140625l0.703125,0l0.28125,0q0.6328125-0.2109375,1.16015625-0.2109375q0.10546875,0,0.333984375,0.03515625t0.333984375,0.03515625l0.2109375,0q0.10546875,0,0.3515625-0.03515625t0.3515625-0.03515625q0.4921875,0,0.66796875,0.4921875q0.4921875-0.6328125,1.51171875-0.6328125q0.5625,0,0.84375,0.28125l0.45703125,0q0.7734375,0,1.265625,0.66796875q0.24609375,0.38671875,0.24609375,1.265625q0,0.66796875-0.17578125,1.37109375q0,0.0703125,0.052734375,0.28125t0.052734375,0.38671875q0,0.80859375-0.24609375,1.30078125q0.421875-0.31640625,0.73828125-0.31640625q0.2109375,0,0.2109375,0.24609375q0,0.2109375-0.3515625,0.4921875q0.2109375,0.10546875,0.2109375,0.2109375q0,0.2109375-0.38671875,0.5625l-0.421875,0.31640625q0.03515625,0.24609375-0.158203125,0.59765625t-0.474609375,0.45703125q-0.421875,0.140625-0.94921875,0.140625q-0.421875,0-0.5625-0.0703125q-0.140625,0.03515625-0.421875,0.193359375t-0.45703125,0.193359375l-0.140625,0q-0.10546875,0-0.123046875-0.263671875t-0.158203125-0.263671875q-0.17578125,0-0.59765625,0.24609375t-0.5625,0.28125q-0.421875,0.140625-1.353515625,0.791015625t-0.931640625,0.931640625l0.2109375,0q0.94921875,0,0.94921875,0.3515625q0,0.17578125-0.31640625,0.28125q-0.17578125,0.10546875-0.52734375,0.333984375t-0.52734375,0.333984375q0,0.0703125,0.03515625,0.24609375t0.03515625,0.24609375l0,0.140625q0.0703125,0.140625,0.123046875,0.5625t0.298828125,0.59765625q0.140625,0.140625,0.140625,0.2109375q0,0.140625-0.228515625,0.4921875t-0.263671875,0.45703125q0,0.140625,0.03515625,0.6328125t0.03515625,0.73828125q0,0.80859375-0.2109375,1.3359375l0,0.24609375q0,0.28125,0.10546875,0.896484375t0.10546875,0.896484375q0,0.0703125-0.03515625,0.17578125t-0.03515625,0.17578125q0.0703125-0.0703125,0.2109375-0.0703125t0.140625,0.140625q0,0.45703125-0.3515625,0.80859375q-0.140625,0.140625-0.140625,0.3515625l0,0.28125l0,0.140625q0,0.0703125-0.03515625,0.24609375t-0.03515625,0.24609375q0,0.45703125,0.28125,0.45703125q0.0703125-0.03515625,0.333984375-0.2109375t0.509765625-0.28125t0.38671875-0.10546875l0-0.140625q0-0.421875,0.5625-0.84375q0.66796875-0.3515625,0.87890625-0.38671875q0.3515625,0,0.421875-0.3515625q0.3515625-0.2109375,0.580078125-0.87890625t0.439453125-0.9140625q0.17578125-0.28125,0.4921875-0.28125q0.3515625,0,0.7734375,0.421875q0.140625,0,0.421875-0.24609375t0.31640625-0.24609375q0.31640625-0.17578125,0.5625-0.80859375l0.3515625-0.3515625q0.38671875,0,0.38671875-0.28125q0-0.140625-0.0703125-0.2109375q0.0703125-0.28125,0.421875-0.6328125t0.421875-0.52734375q0.28125-0.84375,0.94921875-0.94921875l0.140625,0q0.0703125,0,0.17578125,0.03515625t0.17578125,0.03515625q0.140625,0,0.28125-0.140625t0.66796875-0.4921875q0.17578125-0.4921875,0.9140625-0.94921875q1.08984375-0.28125,1.16015625-0.4921875q0.17578125-0.421875,0.52734375-1.01953125q0.45703125-0.7734375,0.984375-0.84375q0.140625-0.66796875,0.66796875-0.66796875q-0.0703125-0.0703125-0.0703125-0.2109375q0-0.3515625,0.6328125-0.5625q-0.140625,0.0703125-0.7734375,0.0703125q-0.66796875,0-0.80859375-0.0703125q-0.140625,0.0703125-0.421875,0.0703125q-0.10546875,0-0.333984375-0.03515625t-0.333984375-0.03515625q-0.140625,0-0.421875,0.140625q-0.0703125,0.0703125-0.2109375,0.0703125q-0.0703125,0-0.59765625-0.3515625q-0.10546875,0-0.3515625-0.03515625t-0.3515625-0.03515625q-0.24609375,0-0.650390625-0.298828125t-0.509765625-0.580078125q0-0.5625-0.0703125-0.6328125q-0.3515625-0.10546875-0.3515625-0.38671875q0-0.17578125,0.17578125-0.5625l0.17578125-0.3515625q-0.0703125-0.2109375-0.0703125-0.73828125l0-0.28125q-0.140625-0.703125-0.140625-1.65234375q0-0.66796875,0.140625-1.37109375q-0.10546875-0.5625,0.52734375-0.931640625t1.3359375-0.369140625q0.31640625,0,0.45703125,0.0703125q0.03515625,0,0.140625,0.03515625t0.140625,0.03515625q0.140625,0,0.3515625-0.10546875t0.421875-0.10546875q0.10546875,0,0.24609375,0.03515625t0.2109375,0.03515625t0.2109375-0.0703125t0.421875-0.0703125l0.4921875,0l0.31640625,0l0.2109375,0q0.31640625,0,0.6328125,0.2109375q0-0.24609375,0.3515625-0.3515625l0.17578125,0q0.2109375,0,0.4921875,0.28125q0.140625-0.140625,0.28125-0.140625q0.0703125,0,0.158203125,0.03515625t0.123046875,0.03515625q0.31640625-0.0703125,1.001953125,0.10546875t0.896484375,0.17578125t0.4921875-0.140625t0.421875-0.140625t0.404296875,0.123046875t0.474609375,0.158203125l0.140625,0q0.2109375,0,0.6328125-0.10546875t0.59765625-0.10546875q0.4921875,0,0.703125,0.2109375q0.3515625-0.3515625,0.87890625-0.3515625q0.421875,0,1.125,0.28125q0.421875-0.140625,0.59765625-0.140625q0.03515625,0,0.158203125,0.03515625t0.193359375,0.03515625q0.421875-0.140625,1.16015625-0.140625l0.2109375,0q0.52734375,0.2109375,1.08984375,0.2109375q0.9140625,0,1.86328125-0.3515625l0.2109375,0q0.28125,0,0.421875,0.140625q0.0703125,0,0.421875-0.140625t0.52734375-0.140625q0.2109375,0,0.66796875,0.10546875t0.6328125,0.10546875q0.28125-0.0703125,0.703125-0.0703125q0.38671875,0,1.65234375,0.28125q0.10546875,0.03515625,0.38671875,0.087890625t0.404296875,0.087890625t0.31640625,0.10546875t0.263671875,0.17578125t0.0703125,0.28125q0,0.2109375-0.0703125,0.3515625q0,0.03515625-0.03515625,0.10546875t-0.03515625,0.10546875q0,0.10546875,0.193359375,0.193359375t0.193359375,0.228515625l0,0.140625q-0.0703125,0.24609375-0.52734375,0.45703125q0,0.28125-0.0703125,0.3515625q0.140625,0.5625,0.140625,1.23046875t-0.140625,1.23046875q0.0703125-0.03515625,0.298828125-0.193359375t0.404296875-0.228515625t0.31640625-0.03515625q0.28125,0.10546875,0.28125,0.2109375q0,0.38671875-0.5625,0.66796875q0.28125,0,0.28125,0.28125q0,0.3515625-0.28125,0.4921875q-0.52734375,0.3515625-0.52734375,0.52734375l0,0.28125q0.2109375,1.01953125-1.86328125,1.01953125q-0.2109375,0.140625-0.7734375,0.140625q-0.52734375,0-0.80859375,0.2109375q-0.140625,0.0703125-0.421875,0.0703125l-0.66796875,0l-0.140625,0q-0.10546875,0.5625-1.08984375,0.5625t-0.984375-0.6328125q-0.52734375,0.52734375-1.30078125,0.9140625q-1.08984375,0.703125-1.23046875,0.94921875q-0.10546875,0.140625-0.17578125,0.474609375t-0.17578125,0.474609375q-0.5625,0.87890625-2.8125,1.51171875q-0.140625,0.140625-0.9140625,0.580078125t-0.94921875,0.861328125q-0.140625,0.4921875-0.84375,1.177734375t-0.87890625,1.107421875q-0.3515625,0.66796875-1.01953125,0.66796875l-0.3515625,0q-0.38671875,0-0.59765625,0.2109375q-0.140625,0.17578125-0.404296875,0.52734375t-0.439453125,0.5625t-0.45703125,0.4921875t-0.5625,0.4921875q-0.2109375,0.10546875-0.2109375,0.28125q0,0.0703125,0.087890625,0.263671875t0.123046875,0.263671875q0.140625,0.38671875,0.615234375,0.9140625t0.615234375,0.80859375q0.2109375,0.140625,0.38671875,0.404296875t0.369140625,0.66796875t0.263671875,0.509765625q0.0703125,0.140625,0.2109375,0.439453125t0.2109375,0.439453125q0.10546875,0.17578125,0.4921875,0.509765625t0.52734375,0.474609375q0.17578125,0.10546875,0.404296875,0.38671875t0.439453125,0.28125l0.2109375,0q0.140625-0.0703125,0.3515625-0.0703125q0.45703125,0,0.45703125,0.3515625q0,0.45703125-0.52734375,0.84375q0.03515625,0.03515625,0.45703125,0.228515625t0.421875,0.369140625q0,0.140625-0.2109375,0.3515625q0.2109375,0.3515625,1.16015625,2.25q0.45703125,0.59765625,0.6328125,1.0546875l0.0703125,0.0703125q0.0703125,0,0.31640625-0.10546875t0.3515625-0.10546875q0.2109375,0,0.2109375,0.28125q0.6328125-0.10546875,0.6328125,0.45703125q0,0.28125-0.2109375,0.4921875q-0.10546875,0.140625-0.24609375,0.28125q-0.10546875,0.10546875-0.10546875,0.140625q0,0.0703125,0.03515625,0.140625t0.10546875,0.17578125l0.140625,0.2109375q0.03515625,0.0703125,0.87890625,1.125q0.5625,0.4921875,1.125,1.44140625q0.140625,0.17578125,0.59765625,0.28125q0.3515625,0.0703125,0.3515625,0.73828125q0,0.28125,0.0703125,0.421875q0.2109375,0.2109375,0.369140625,0.66796875t0.263671875,0.6328125q0.10546875,0.10546875,0.474609375,0.439453125t0.59765625,0.59765625t0.369140625,0.474609375q0.5625,0.31640625,1.01953125,0.87890625q0.0703125,0.03515625,0.17578125,0.158203125t0.2109375,0.193359375t0.24609375,0.0703125q0.38671875,0,1.107421875,0.28125t1.001953125,0.3515625l0.3515625,0l0.73828125,0q0.38671875-0.28125,0.703125-0.28125q0.10546875,0,0.28125,0.03515625t0.28125,0.03515625q0.59765625,0.2109375,0.59765625,0.87890625q0,0.140625-0.03515625,0.45703125t-0.03515625,0.45703125l0,0.38671875q0,0.703125-0.0703125,0.984375q0.140625,0.28125,0.140625,1.44140625q0.0703125,0.28125,0.0703125,1.16015625q0,0.17578125,0.017578125,0.24609375t0.052734375,0.0703125l0.087890625,0t0.123046875,0.03515625t0.140625,0.140625z M161.484375,137.1953125l-0.0703125,0l0.0703125,0q0,0.0703125-0.38671875,0.421875t-0.861328125,0.7734375t-0.580078125,0.52734375q0.5625-0.28125,1.01953125-0.28125q0.59765625,0,0.59765625,0.421875q0,0.17578125-0.10546875,0.38671875q-0.140625,0.28125-0.4921875,1.3359375q0.73828125,0.24609375,1.01953125,0.24609375q-0.28125-1.7578125-0.28125-2.8125q0-0.73828125,0.0703125-1.01953125z M159.375,136.38671875q-0.28125,0-0.544921875-0.140625t-0.369140625-0.140625q-0.24609375,0-0.38671875,0.140625q-0.28125,0.2109375-0.861328125,0.685546875t-0.861328125,0.685546875q-0.4921875,0.3515625-1.388671875,1.08984375t-1.353515625,1.08984375q0.45703125-0.24609375,1.265625-0.755859375t1.265625-0.755859375q0.17578125-0.0703125,1.001953125-0.580078125t1.529296875-0.931640625t0.703125-0.38671875z M150.97265625,140.8515625l-0.0703125,0l0.0703125,0q0.4921875-0.17578125,1.001953125-0.5625t1.107421875-0.9140625t0.9140625-0.73828125q-0.421875,0.24609375-1.142578125,0.66796875t-1.318359375,0.7734375t-1.16015625,0.6328125q0.17578125,0,0.59765625,0.140625z M156.2109375,139.4453125q-0.140625,0.0703125-0.7734375,0.4921875q0.6328125-0.421875,0.7734375-0.4921875z M157.30078125,135.68359375q-0.17578125-0.10546875-0.439453125-0.31640625t-0.5625-0.509765625t-0.439453125-0.404296875q-0.4921875,0.3515625-1.40625,1.125t-1.40625,1.125q-0.28125,0.24609375-1.986328125,1.65234375t-2.548828125,2.21484375q0.140625,0.0703125,0.3515625,0.0703125q0.24609375,0,0.544921875-0.140625t0.650390625-0.3515625t0.45703125-0.28125q0.38671875-0.24609375,1.177734375-0.720703125t1.212890625-0.720703125q0.17578125-0.10546875,1.30078125-0.826171875t2.109375-1.3359375t0.984375-0.580078125z M154.20703125,132.87109375q-1.44140625,1.08984375-4.32421875,3.251953125t-4.32421875,3.216796875q1.37109375-0.7734375,9.6328125-5.51953125q-0.3515625-0.45703125-0.984375-0.94921875z M153.3984375,131.5703125q-0.0703125-0.0703125-0.0703125-0.28125q-0.80859375,0.80859375-0.984375,0.94921875q0.140625-0.0703125,0.509765625-0.263671875t0.615234375-0.263671875q-0.0703125,0-0.0703125-0.140625z M138.703125,140.640625l0.66796875-0.4921875q0-0.03515625-0.158203125,0.052734375t-0.333984375,0.228515625t-0.17578125,0.2109375q1.01953125-0.703125,5.044921875-3.216796875t6.064453125-4.060546875q3.375-2.25,3.0234375-2.91796875q-0.17578125-0.17578125-0.28125-0.17578125q-0.17578125,0-0.4921875,0.24609375t-0.38671875,0.28125q-0.24609375,0.2109375-1.08984375,0.703125q-4.78125,2.84765625-10.51171875,6.50390625q-3.3046875,2.00390625-3.4453125,2.07421875q0.10546875,0.5625,0.66796875,0.5625q0.140625,0,0.474609375-0.0703125t0.509765625-0.0703125q0.140625,0,0.421875,0.140625z M141.7265625,132.16796875q-0.0703125-0.0703125-0.0703125-0.140625l0.0703125,0.140625q-0.0703125-0.0703125-0.0703125-0.2109375q0-0.52734375,0.52734375-0.87890625q-0.17578125,0.10546875-0.544921875,0.28125t-0.544921875,0.28125q0.140625,0.17578125,0.3515625,0.580078125t0.28125,0.509765625q0.10546875-0.0703125,0.298828125-0.2109375t0.298828125-0.2109375q-0.03515625,0-0.140625,0.03515625t-0.140625,0.03515625q-0.2109375,0-0.31640625-0.2109375z M151.04296875,128.1953125q-0.10546875-0.10546875-0.228515625-0.263671875t-0.193359375-0.228515625t-0.17578125-0.0703125q-0.0703125,0-0.3515625,0.140625q-0.5625,0.3515625-1.669921875,1.107421875t-1.634765625,1.107421875q-0.52734375,0.31640625-1.494140625,1.01953125t-1.458984375,1.01953125q-0.10546875,0.0703125-0.615234375,0.38671875t-0.896484375,0.6328125t-0.421875,0.4921875q1.79296875-1.01953125,5.23828125-3.19921875q0.66796875-0.421875,1.86328125-1.212890625t1.51171875-1.001953125q0.03515625,0,0.10546875-0.03515625t0.10546875-0.03515625q0.140625,0,0.263671875,0.123046875t0.123046875,0.228515625q0,0.140625-0.140625,0.28125q-0.0703125,0.03515625-0.193359375,0.10546875t-0.193359375,0.10546875q-1.79296875,1.23046875-5.51953125,3.55078125q-0.2109375,0.140625-2.25,1.37109375q-0.10546875,0.0703125-0.333984375,0.17578125t-0.31640625,0.158203125t-0.17578125,0.17578125t-0.087890625,0.333984375l0,0.140625q1.265625-0.703125,6.1875-4.1484375q0.0703125-0.03515625,0.73828125-0.509765625t0.9140625-0.6328125t0.7734375-0.421875t0.94921875-0.404296875q-0.140625-0.2109375-0.421875-0.4921875z M149.7421875,126.40234375l-1.37109375,0.84375l1.37109375-0.84375q-4.5703125,2.98828125-6.46875,4.60546875q1.37109375-0.7734375,3.919921875-2.302734375l2.900390625-1.740234375q-0.03515625-0.0703125-0.158203125-0.28125t-0.193359375-0.28125z M148.37109375,124.15234375q-1.08984375-1.79296875-1.37109375-2.49609375q-0.140625,0.140625-0.703125,0.5625q0.2109375-0.0703125,0.5625,0.10546875t0.3515625,0.38671875q0,0.24609375-0.140625,0.31640625q-0.28125,0.24609375-0.861328125,0.720703125t-0.861328125,0.720703125q-0.2109375,0.2109375-1.265625,1.142578125t-1.6171875,1.494140625q-1.1953125,1.0546875-2.25,2.25q-0.3515625,0.3515625-0.3515625,0.4921875q0,0.03515625,0.03515625,0.087890625t0.10546875,0.17578125t0.140625,0.228515625q1.828125-1.44140625,2.0390625-1.58203125q1.7578125-1.265625,6.5390625-3.9375q-0.17578125-0.2109375-0.3515625-0.66796875z M138.0703125,127.17578125q0.03515625,0.10546875,3.9375-2.70703125t4.640625-3.41015625l0-0.0703125q-0.73828125,0.421875-1.6171875,0.984375t-1.458984375,0.984375t-1.58203125,1.16015625t-1.458984375,1.0546875l-0.3515625,0.31640625q-0.38671875,0.31640625-0.703125,0.544921875t-0.73828125,0.439453125t-0.73828125,0.2109375q-0.2109375,0-0.3515625-0.140625z M138.4921875,125.734375l0.38671875-0.28125q-0.24609375,0.140625-0.38671875,0.28125q1.40625-0.84375,3.33984375-2.28515625q-2.3203125,1.265625-3.33984375,2.28515625z M143.16796875,124.46875l-0.7734375,0.6328125l0.7734375-0.6328125q-0.10546875,0.10546875-1.388671875,0.94921875t-2.302734375,1.634765625t-0.9140625,1.001953125q0.5625,0.5625,0.80859375,1.16015625q1.65234375-1.93359375,6.6796875-6.2578125q-0.9140625,0.24609375-2.8828125,1.51171875z M144.3984375,118.31640625q-0.28125-0.2109375-0.28125-0.28125q-0.94921875,1.265625-3.146484375,3.3046875t-2.759765625,2.671875q4.95703125-3.26953125,7.27734375-4.53515625q-0.0703125-0.0703125-0.45703125-0.52734375t-0.6328125-0.6328125z M134.5546875,122.0078125l0.28125-0.2109375q-0.0703125,0-0.17578125,0.087890625t-0.10546875,0.123046875q0.4921875-0.421875,2.28515625-1.845703125t2.7421875-2.267578125q1.265625-0.87890625,2.3203125-1.93359375q0.4921875-0.4921875,0.4921875-0.59765625q0-0.140625-0.140625-0.28125q-1.4765625,0.703125-4.166015625,2.865234375t-4.341796875,2.830078125q0.03515625,0.0703125,0.80859375,1.23046875z M133.11328125,119.8984375q0.03515625,0.03515625,2.232421875-1.65234375t2.724609375-2.14453125q-3.83203125,2.56640625-5.34375,3.234375q0.03515625,0.0703125,0.140625,0.17578125t0.158203125,0.193359375t0.087890625,0.193359375z M120.87890625,125.171875l0.9140625-0.5625l-0.9140625,0.5625q0.703125-0.421875,2.126953125-1.283203125t2.162109375-1.318359375q0.24609375-0.17578125,1.08984375-0.615234375t1.40625-0.87890625t0.703125-0.931640625q-0.3515625,0.2109375-2.3203125,1.3359375t-2.583984375,1.458984375t-2.25,1.30078125t-2.548828125,1.529296875t-2.197265625,1.388671875t-2.373046875,1.599609375q2.21484375-0.80859375,6.78515625-3.5859375z M155.19140625,99.75390625l0.80859375-0.5625q0-0.03515625-0.2109375,0.087890625t-0.421875,0.28125t-0.17578125,0.193359375q3.1640625-2.14453125,4.39453125-3.234375q-0.80859375,0.4921875-2.443359375,1.546875t-2.443359375,1.546875q0.3515625,0,0.4921875,0.140625z M140.953125,113.640625q0.6328125,1.0546875-3.83203125,4.04296875q3.48046875-2.49609375,4.7109375-3.1640625q-0.6328125-0.7734375-0.80859375-1.37109375q-0.7734375,0.38671875-4.25390625,2.671875q-4.53515625,2.7421875-4.46484375,2.953125q1.30078125-0.52734375,4.46484375-2.6015625q0.421875-0.421875,1.93359375-1.51171875t2.0390625-1.08984375q0.140625,0,0.2109375,0.0703125z M140.53125,111.42578125q-0.03515625-0.10546875-0.7734375,0.38671875t-1.1953125,0.84375q-0.3515625,0.28125-1.107421875,0.826171875t-1.107421875,0.826171875q-0.66796875,0.45703125-2.0390625,1.388671875t-2.07421875,1.423828125q3.62109375-2.00390625,6.2578125-3.41015625q1.08984375-0.5625,2.25-1.265625q-0.03515625-0.0703125-0.10546875-0.24609375t-0.123046875-0.31640625t-0.052734375-0.24609375q0-0.03515625,0.03515625-0.10546875t0.03515625-0.10546875z M119.12109375,124.36328125q2.671875-1.79296875,8.033203125-5.396484375t8.033203125-5.396484375q-7.48828125,4.81640625-14.16796875,8.5078125q-3.9375,2.07421875-5.5546875,2.671875q-1.0546875,0.3515625-1.44140625,0.3515625q-0.0703125,0-0.17578125-0.03515625t-0.17578125-0.03515625l0,0.28125q0,0.66796875,0.703125,0.66796875q0.38671875,0,0.80859375-0.10546875q1.44140625-0.28125,3.9375-1.51171875z M152.625,100.9140625q-0.03515625,0-0.0703125,0.03515625t-0.0703125,0.03515625q0.140625,0,0.140625-0.0703125z M132.09375,111.70703125l1.72265625-0.703125l-1.72265625,0.703125q1.6875-0.66796875,3.33984375-1.494140625t3.69140625-2.07421875t3.0234375-1.86328125t3.568359375-2.337890625t3.076171875-2.0390625q-5.2734375,3.09375-8.578125,4.9921875q-0.94921875,0.5625-2.830078125,1.669921875t-2.830078125,1.634765625q-0.0703125,0.03515625-0.755859375,0.369140625t-1.1953125,0.650390625t-0.509765625,0.4921875z M157.72265625,95.7109375q-0.2109375,0.140625-0.650390625,0.404296875t-0.650390625,0.404296875q0.2109375-0.140625,0.650390625-0.404296875t0.650390625-0.404296875z M138,107.171875l0-0.0703125l0,0.0703125q2.63671875-1.4765625,6.5390625-3.83203125q-0.59765625,0.31640625-1.705078125,0.984375t-1.669921875,0.984375q-0.2109375,0.10546875-0.7734375,0.369140625t-0.9140625,0.45703125t-0.791015625,0.474609375t-0.685546875,0.5625z M149.07421875,103.33984375l0.0703125,0l-0.28125,0.17578125l0,0q0-0.10546875,0.2109375-0.17578125q1.08984375-0.5625,2.0390625-1.51171875q-0.73828125,0.421875-2.197265625,1.3359375t-2.197265625,1.3359375q0.421875-0.17578125,1.177734375-0.580078125t1.177734375-0.580078125z M159.09375,96.02734375q-1.86328125,1.0546875-3.515625,2.21484375q0.59765625-0.3515625,1.775390625-1.107421875t1.740234375-1.107421875z M153.46875,94.26953125l-0.0703125,0l0.0703125,0q-0.7734375,0.28125-1.564453125,0.720703125t-1.916015625,1.16015625t-1.4765625,0.931640625q-0.5625,0.31640625-1.546875,0.966796875t-1.125,0.755859375q-0.94921875,0.59765625-2.28515625,1.51171875q-0.2109375,0.2109375-0.2109375,0.38671875l0,0.28125q0,0.2109375-0.0703125,0.3515625q-0.0703125,0.0703125-0.228515625,0.17578125t-0.228515625,0.17578125q1.828125-1.08984375,5.625-3.638671875t5.90625-3.708984375q-0.2109375-0.0703125-0.87890625-0.0703125z M150.515625,94.4453125l0.0703125,0l-0.0703125,0q-0.17578125,0-0.439453125,0.123046875t-0.5625,0.31640625t-0.439453125,0.263671875q-0.0703125,0.03515625-0.861328125,0.4921875t-1.212890625,0.66796875q-4.53515625,2.63671875-4.60546875,2.671875q0.17578125,0.10546875,0.4921875,0.5625q1.546875-0.9140625,4.271484375-2.724609375t3.814453125-2.478515625q-0.24609375,0-0.45703125,0.10546875z M128.7890625,113.5q0.0703125,0.0703125,0.0703125,0.140625l0.84375-0.421875q-0.9140625,0.2109375-0.9140625,0.28125z M124.04296875,115.890625l-0.45703125,0.28125l0.45703125-0.28125q-0.73828125,0.5625-2.478515625,1.705078125t-2.583984375,1.810546875q0.984375-0.6328125,2.865234375-1.740234375t2.548828125-1.494140625q-0.28125-0.140625-0.3515625-0.28125z M124.95703125,116.6640625l-2.07421875,1.23046875q0,0.03515625,0.52734375-0.263671875t1.0546875-0.615234375t0.4921875-0.3515625q-3.97265625,2.21484375-7.171875,4.39453125q-1.6171875,1.08984375-2.7421875,2.109375q-1.08984375,1.08984375-1.08984375,1.1953125l0.140625,0q0.73828125,0,1.44140625-0.421875q1.7578125-0.6328125,5.16796875-2.49609375q8.61328125-4.67578125,25.8046875-15.85546875q-2.00390625,1.08984375-6.662109375,3.462890625t-7.119140625,3.744140625q-2.671875,1.51171875-4.359375,2.28515625q-0.421875,0.17578125-1.01953125,0.52734375q0,0.73828125-0.4921875,0.84375q-1.0546875,0.421875-1.30078125,0.421875q-0.28125,0-0.59765625-0.2109375z M113.7421875,123.23828125l0.140625-0.2109375q-0.140625,0.140625-0.140625,0.2109375q0.66796875-0.87890625,1.65234375-1.72265625q-1.16015625,0.4921875-1.58203125,0.5625q0,0.140625-0.03515625,0.474609375t-0.03515625,0.474609375l0,0.2109375z M113.671875,128.0546875q0.421875-0.28125,1.283203125-0.861328125t1.318359375-0.861328125q-1.125,0.28125-1.828125,0.28125q-0.4921875,0-0.7734375-0.0703125l0,0.28125l0,0.80859375l0,0.421875z M131.671875,118.31640625q0.10546875,0,0.263671875-0.10546875t0.333984375-0.263671875t0.24609375-0.193359375l-0.31640625,0.158203125t-0.421875,0.228515625t-0.17578125,0.17578125l0.0703125,0z M142.88671875,115.890625l-0.28125,0.28125l0.28125-0.2109375l0-0.0703125q-0.5625,0.59765625-1.23046875,1.1953125t-1.599609375,1.353515625t-1.353515625,1.107421875q1.125-0.7734375,1.58203125-1.08984375t1.4765625-0.80859375t1.79296875-0.59765625q-0.03515625-0.0703125-0.263671875-0.509765625t-0.404296875-0.650390625z M156.421875,100.17578125l0-0.140625l0,0.140625q0-0.2109375,0.17578125-0.38671875t0.421875-0.17578125l0.28125,0q0.140625,0,0.421875-0.2109375q0.66796875-0.52734375,1.44140625-0.52734375l0.140625,0q0.10546875-0.0703125,0.720703125-0.28125t0.650390625-0.703125q-0.0703125-0.2109375-0.0703125-0.73828125l0-0.703125q-0.59765625,0.73828125-2.671875,2.28515625q-0.24609375,0.2109375-0.80859375,0.580078125t-0.6328125,0.439453125q-0.10546875,0.10546875-0.298828125,0.2109375t-0.263671875,0.17578125t-0.0703125,0.24609375l0,0.17578125q0.0703125-0.10546875,0.298828125-0.193359375t0.263671875-0.193359375z M138.6328125,94.26953125l-0.263671875,0t-0.158203125,0.0703125l-0.087890625,0.087890625t-0.087890625,0.158203125l-0.10546875,0.2109375q-0.10546875,0.2109375-0.31640625,0.615234375t-0.31640625,0.615234375q-0.38671875,0.66796875-0.38671875,0.984375l0,0.73828125q1.7578125-0.94921875,5.8359375-3.55078125l-0.140625,0q-0.2109375,0-0.615234375,0.123046875t-0.615234375,0.123046875q-0.0703125-0.03515625-0.2109375-0.140625t-0.24609375-0.193359375t-0.17578125-0.052734375q-0.140625,0.140625-0.2109375,0.140625q-0.4921875,0.24609375-1.16015625,0.24609375q-0.38671875,0-0.73828125-0.17578125z M136.76953125,95.5l0.3515625-0.703125q-0.28125,0.2109375-0.28125,0.3515625t-0.0703125,0.3515625z M123.83203125,114.09765625l0-0.140625q-7.734375,5.765625-9.80859375,7.3828125q1.65234375-0.52734375,5.02734375-2.84765625q0.66796875-0.52734375,2.0390625-1.494140625t2.07421875-1.458984375q0.73828125-0.52734375,0.73828125-0.87890625t-0.0703125-0.5625z M126.46875,94.19921875l0.0703125,0l-0.0703125,0q-0.3515625-0.03515625-0.80859375,0.263671875t-0.984375,0.7734375t-0.703125,0.615234375q3.12890625-1.828125,3.234375-1.86328125l-0.0703125,0q-0.10546875,0-0.333984375,0.10546875t-0.333984375,0.10546875z M124.60546875,94.33984375q-0.140625,0.0703125-0.140625,0.17578125q0.140625-0.10546875,0.140625-0.17578125q-1.58203125,0.9140625-3.33984375,2.0390625t-3.849609375,2.53125t-3.251953125,2.14453125q-0.10546875,0.0703125-0.298828125,0.17578125t-0.24609375,0.158203125t-0.158203125,0.140625t-0.123046875,0.193359375t-0.017578125,0.28125q0.140625,0.5625,0.140625,0.9140625l0,0.3515625l0,0.38671875q0,0.24609375-0.03515625,0.755859375t-0.03515625,0.755859375q0,0.421875,0.0703125,0.6328125q4.39453125-3.4453125,14.8359375-11.53125q-0.24609375,0-0.544921875,0.140625t-0.703125,0.404296875t-0.509765625,0.333984375q-0.52734375,0.28125-3.09375,1.86328125q-2.3203125,1.51171875-6.75,4.53515625q-0.10546875,0.0703125-0.703125,0.544921875t-1.037109375,0.720703125t-0.861328125,0.31640625t-0.421875-0.140625t0.228515625-0.4921875t0.404296875-0.3515625q1.37109375-1.01953125,10.44140625-7.69921875q-0.0703125-0.03515625-0.140625-0.10546875z M130.93359375,97.9609375l0-0.0703125q-0.10546875,0-0.28125,0.3515625q0.28125-0.10546875,0.28125-0.28125z M131.07421875,96.09765625l-0.3515625,0.0703125l0.3515625-0.0703125q-1.0546875,0.31640625-2.3203125,0.94921875t-2.00390625,1.072265625t-2.25,1.40625t-1.96875,1.248046875q-4.67578125,2.953125-7.69921875,5.02734375q-0.59765625,0.28125-1.23046875,0.80859375q-0.140625,0.0703125-0.140625,0.421875l0,0.421875l0,0.2109375q0.0703125,0.2109375,0.0703125,0.73828125q0,0.87890625,0.0703125,1.23046875q1.4765625-0.984375,4.46484375-2.935546875t4.46484375-2.970703125q0.24609375-0.2109375,0.685546875-0.5625t0.509765625-0.38671875l0-0.140625q0-0.24609375,0.31640625-0.73828125q0.10546875-0.59765625,0.3515625-1.0546875q0.0703125-0.31640625,0.123046875-0.5625t0.263671875-0.509765625t0.4921875-0.228515625q0.10546875-0.03515625,0.474609375-0.298828125t0.580078125-0.263671875t0.3515625,0.140625q0.03515625-0.0703125,0.10546875-0.31640625t0.17578125-0.404296875t0.24609375-0.158203125q0.2109375,0,0.3515625,0.140625q0.10546875,0.03515625,0.2109375,0.087890625t0.140625,0.10546875t0.0703125,0.0703125t0.0703125,0.017578125q0.10546875,0,0.52734375-0.2109375q0.28125-0.28125,0.9140625-0.28125q0.52734375-0.0703125,1.072265625-0.7734375t0.509765625-1.30078125z M113.8125,113.8515625q1.546875-1.08984375,4.67578125-3.33984375t4.67578125-3.33984375q-1.828125,1.01953125-4.95703125,3.0234375q-0.5625,0.31640625-1.6171875,1.001953125t-1.6171875,1.001953125q-0.0703125,0.0703125-0.38671875,0.28125t-0.421875,0.298828125t-0.228515625,0.333984375t-0.123046875,0.52734375l0,0.2109375z M113.671875,110.4765625l0.0703125-0.0703125q-0.0703125,0-0.0703125,0.0703125z M117.85546875,109.31640625l0.4921875-0.28125l-0.94921875,0.52734375q0.17578125-0.10546875,0.45703125-0.24609375q0.3515625-0.2109375,1.23046875-0.703125t1.388671875-0.7734375t1.212890625-0.755859375t1.1953125-0.931640625q-0.5625,0.17578125-1.125,0.4921875t-1.30078125,0.7734375t-1.01953125,0.6328125q-0.45703125,0.28125-1.353515625,0.861328125t-1.388671875,0.861328125q-0.03515625,0.03515625-0.87890625,0.52734375t-1.423828125,0.9140625t-0.580078125,0.5625q0.87890625-0.59765625,4.04296875-2.4609375z M113.671875,117.33203125l0.2109375-0.140625l-0.2109375,0.140625q0.6328125-0.4921875,3.0234375-2.28515625t3.884765625-3.041015625t2.794921875-2.619140625q-5.80078125,3.33984375-6.5390625,3.76171875q-0.52734375,0.28125-1.494140625,0.84375t-1.388671875,0.80859375q-0.140625,0.10546875-0.193359375,0.615234375t-0.052734375,1.142578125t-0.03515625,0.7734375z M123.83203125,109.9140625l-0.45703125,0.4921875l0.45703125-0.4921875q-0.703125,0.73828125-1.65234375,1.58203125t-1.65234375,1.40625t-1.880859375,1.4765625t-1.740234375,1.37109375q0.80859375-0.4921875,2.408203125-1.40625t2.408203125-1.40625q0.3515625-0.2109375,1.08984375-0.615234375t1.08984375-0.615234375q0.140625-0.140625,0.140625-0.4921875q0-0.66796875-0.2109375-1.30078125z M123.97265625,107.6640625l-0.0703125,0l0.0703125,0q0-0.03515625-0.03515625-0.0703125t-0.03515625-0.0703125q-0.87890625,0.6328125-2.689453125,1.8984375t-2.724609375,1.93359375q0.52734375-0.28125,1.51171875-0.861328125t1.51171875-0.861328125q0.31640625-0.17578125,0.966796875-0.544921875t0.966796875-0.544921875q0.24609375-0.140625,0.298828125-0.2109375t0.10546875-0.28125t0.123046875-0.38671875z M123.97265625,104.5703125q-2.91796875,1.6875-3.26953125,1.8984375q0.0703125-0.0703125,0.52734375-0.298828125t1.125-0.474609375t1.01953125-0.24609375q0.52734375,0,0.52734375,0.3515625q0,0.03515625-0.03515625,0.10546875t-0.03515625,0.10546875q0.2109375-0.0703125,0.2109375-0.4921875q0-0.17578125-0.03515625-0.52734375t-0.03515625-0.421875z M129.94921875,94.05859375q-0.24609375,0.03515625-0.52734375,0.2109375t-0.615234375,0.45703125t-0.439453125,0.3515625q-0.3515625,0.28125-1.4765625,1.16015625t-1.72265625,1.37109375q-2.8125,2.109375-5.02734375,3.8671875q5.625-3.5859375,8.578125-5.09765625q1.546875-0.7734375,1.86328125-0.87890625q0.421875-0.140625,0.4921875-0.140625q0.0703125-0.0703125,0.0703125-1.23046875q-0.140625,0.0703125-0.4921875,0.0703125q-0.421875,0-0.703125-0.140625z M122.671875,94.05859375q-0.0703125,0-0.439453125,0.2109375t-0.580078125,0.17578125q-0.140625,0.0703125-0.3515625,0.0703125l-0.140625,0q-0.2109375,0-0.3515625,0.140625q-0.52734375,0.3515625-0.59765625,0.421875q-1.93359375,1.37109375-3.4453125,2.6015625q-1.828125,1.4765625-2.53125,2.07421875q-0.0703125,0.0703125-0.38671875,0.298828125t-0.52734375,0.439453125t-0.17578125,0.3515625q1.6171875-0.984375,5.009765625-3.234375t5.220703125-3.33984375l-0.140625,0q-0.10546875,0-0.193359375-0.03515625t-0.193359375-0.087890625z M108.1171875,94.515625q-0.28125,0.140625-0.861328125,0.45703125t-0.861328125,0.45703125q-0.421875,0.17578125-0.421875,0.3515625l0,0.31640625l0,0.28125q0.0703125,0.3515625,0.0703125,1.37109375q0.3515625-0.52734375,1.037109375-1.599609375t1.037109375-1.634765625z M109.91015625,94.19921875l-0.140625,0l-0.3515625,0q-0.31640625,0-0.4921875,0.31640625q-0.10546875,0.2109375-0.80859375,1.265625q-0.3515625,0.52734375-1.30078125,2.109375q0.984375-0.5625,2.91796875-1.72265625t2.91796875-1.72265625q-0.4921875-0.0703125-2.7421875-0.24609375z M115.11328125,98.1015625l-0.59765625,0.421875q0.24609375-0.140625,0.59765625-0.421875q-0.6328125,0.38671875-1.65234375,1.16015625q-0.52734375,0.24609375-0.52734375,0.421875l0,0.28125q1.1953125-1.08984375,2.1796875-1.86328125z M113.7421875,118.703125q0.03515625,0.0703125,2.162109375-1.177734375t4.482421875-2.724609375t2.84765625-1.93359375q-0.84375,0.52734375-2.53125,1.494140625t-2.49609375,1.458984375q-1.58203125,0.84375-3.3046875,1.86328125q-0.0703125,0.03515625-0.3515625,0.193359375t-0.404296875,0.228515625t-0.24609375,0.228515625t-0.158203125,0.369140625z M117.46875,117.82421875q-0.421875,0.24609375-1.30078125,0.791015625t-1.3359375,0.791015625q-0.17578125,0.0703125-0.509765625,0.24609375t-0.509765625,0.24609375q0.0703125,0.0703125,0.0703125,0.31640625q0,0.2109375-0.0703125,0.3515625q0.6328125-0.4921875,1.845703125-1.388671875t1.810546875-1.353515625z M118.20703125,127.5625q-1.72265625,1.0546875-3.375,2.00390625q-0.0703125,0.03515625-0.369140625,0.158203125t-0.52734375,0.228515625t-0.333984375,0.24609375l0,0.31640625q0,0.2109375-0.03515625,0.6328125t-0.03515625,0.6328125q4.078125-2.4609375,6.3984375-4.0078125q3.515625-2.3203125,3.7265625-2.4609375q0.28125-0.140625,0.369140625-0.474609375t0.228515625-0.474609375q0.10546875-0.10546875,0.45703125-0.31640625t0.38671875-0.45703125q-0.87890625,0.4921875-3.234375,1.880859375t-3.65625,2.091796875z M124.32421875,132.73046875q-1.3359375,1.0546875-3.990234375,3.111328125t-3.990234375,3.076171875q3.41015625-2.21484375,6.1171875-3.7265625q1.546875-0.94921875,2.07421875-1.01953125q0-0.17578125-0.2109375-1.44140625z M109.13671875,140.8515625l1.65234375-0.9140625l-1.65234375,0.9140625q1.6171875-0.9140625,11.21484375-6.609375q0.4921875-0.28125,1.458984375-0.861328125t1.423828125-0.861328125q0.10546875-0.0703125,0.3515625-0.2109375t0.31640625-0.193359375t0.158203125-0.193359375t0.123046875-0.3515625q-0.0703125-0.2109375-0.0703125-0.703125q-0.140625-0.3515625-0.140625-1.23046875l0-0.94921875q0-0.5625-0.0703125-0.84375q-0.2109375,0.140625-0.615234375,0.421875t-0.615234375,0.421875q0.28125-0.0703125,0.66796875,0.123046875t0.38671875,0.404296875q0,0.17578125-0.2109375,0.28125q-0.17578125,0.10546875-0.52734375,0.3515625t-0.52734375,0.3515625q-4.078125,2.7421875-4.46484375,3.0234375q-7.13671875,4.78125-9.94921875,7.48828125q0.0703125,0.140625,1.08984375,0.140625z M123.5859375,127.703125l0.0703125,0.0703125z M123.90234375,126.61328125q-0.10546875,0.17578125-0.369140625,0.369140625t-0.685546875,0.404296875t-0.45703125,0.24609375q-0.24609375,0.140625-0.755859375,0.45703125t-0.755859375,0.45703125q-0.66796875,0.421875-3.0234375,2.0390625q-0.24609375,0.17578125-1.37109375,0.896484375t-1.79296875,1.212890625t-1.30078125,1.0546875q0.28125-0.0703125,0.966796875-0.580078125t0.826171875-0.580078125q0.73828125-0.421875,1.86328125-1.16015625q2.21484375-1.23046875,2.671875-1.44140625q0.52734375-0.28125,1.037109375-0.650390625t1.265625-0.94921875t1.001953125-0.755859375q0.140625-0.10546875,0.3515625-0.24609375t0.28125-0.193359375t0.140625-0.193359375t0.10546875-0.38671875z M113.390625,132.73046875q0,0.0703125,0.0703125,0.0703125t0.4921875-0.421875q-0.10546875,0.0703125-0.28125,0.17578125t-0.28125,0.17578125z M107.8359375,137.0546875l0.0703125,0l-0.0703125,0q-0.140625-0.0703125-0.421875-0.0703125l-0.45703125,0q-0.0703125,0-0.2109375,0.03515625t-0.2109375,0.03515625q-0.3515625,0.28125-0.3515625,0.6328125q0,0.10546875,0.03515625,0.3515625t0.03515625,0.38671875q0.31640625-0.24609375,2.00390625-1.37109375q-0.140625-0.140625-0.2109375-0.140625t-0.2109375,0.140625z M104.6015625,138.84765625l0,0.140625l0-0.140625q-0.03515625,0.140625-0.140625,0.439453125t-0.140625,0.439453125q0.17578125-0.140625,0.2109375-0.24609375t0.03515625-0.31640625t0.03515625-0.31640625z M110.4375,136.38671875l-0.66796875,0.52734375q0,0.03515625,0.193359375-0.0703125t0.369140625-0.24609375t0.10546875-0.2109375q-0.59765625,0.421875-1.79296875,1.212890625t-1.7578125,1.177734375q-0.38671875,0.28125-0.509765625,0.4921875t-0.140625,0.580078125t-0.123046875,0.650390625q0,0.28125,0.28125,0.28125q0.59765625,0,0.94921875-0.3515625q1.72265625-1.546875,2.21484375-1.93359375q4.67578125-3.7265625,12.4453125-8.859375q-1.3359375,0.5625-3.5859375,2.07421875t-3.234375,2.0390625q-0.17578125,0.10546875-0.861328125,0.369140625t-1.001953125,0.474609375q-0.24609375,0.140625-0.421875,0.3515625t-0.3515625,0.4921875t-0.31640625,0.45703125q-0.59765625,0.73828125-1.23046875,0.73828125q-0.2109375,0-0.5625-0.24609375z M110.9296875,140.8515625l0.0703125-0.0703125q-0.0703125,0-0.0703125,0.0703125q0.28125-0.2109375,0.87890625-0.2109375l0.4921875,0q0.6328125,0,0.9140625-0.2109375q1.51171875-1.1953125,2.25-1.72265625q0.703125-0.52734375,2.0390625-1.58203125l2.00390625-1.58203125q-6.57421875,3.9375-8.7890625,5.16796875q0.03515625,0.03515625,0.10546875,0.0703125t0.10546875,0.0703125z M118.76953125,140.7109375q0.140625-0.0703125,0.3515625-0.10546875t0.45703125-0.24609375l0.703125-0.703125q1.6171875-1.6171875,2.109375-2.25q1.546875-1.72265625,1.86328125-2.42578125q-1.44140625,0.6328125-2.91796875,1.494140625t-3.48046875,2.21484375t-2.7421875,1.810546875q0.17578125,0,0.4921875,0.0703125t0.4921875,0.0703125q0.140625-0.140625,0.45703125-0.140625q0.28125,0,0.421875,0.140625l0.421875,0l0.66796875,0q0.4921875,0,0.703125,0.0703125z M124.81640625,140.78125l0.0703125,0l-0.0703125,0q0.17578125,0,0.31640625,0.03515625l0.140625,0.03515625l0.28125-0.3515625q0.17578125-0.2109375,0.52734375-0.685546875t0.52734375-0.685546875q0.984375-1.23046875,1.58203125-2.21484375q-0.140625-0.0703125-0.421875-0.0703125q-0.31640625,0-1.16015625,0.4921875q-1.72265625,1.0546875-2.28515625,1.44140625l-1.4765625,0.84375t-1.8984375,1.01953125q0.03515625,0,0.140625,0.03515625t0.140625,0.03515625q0.2109375,0,0.66796875-0.10546875t0.6328125-0.10546875q0.28125,0,0.3515625,0.0703125l0.28125,0q0.17578125,0,1.65234375,0.2109375z M130.37109375,140.8515625q0-0.0703125-0.0703125-0.0703125l0.0703125,0.0703125q0.4921875-0.17578125,0.4921875-0.421875l0-0.5625q-0.0703125-0.2109375-0.0703125-0.59765625q0-0.2109375,0.03515625-0.615234375t0.03515625-0.580078125q-2.109375,1.16015625-4.46484375,2.953125l0.2109375,0l0.45703125,0q0.3515625-0.17578125,0.421875-0.17578125q0.17578125,0,0.703125,0.17578125q0.10546875-0.03515625,0.333984375-0.140625t0.404296875-0.10546875q0.03515625,0,0.10546875,0.03515625t0.10546875,0.03515625l0.2109375,0q0.10546875,0,0.333984375-0.03515625t0.333984375-0.03515625q0.2109375,0,0.3515625,0.0703125z M130.23046875,137.0546875l0.140625,0l-0.140625,0l-0.3515625,0q-0.9140625,0-1.23046875,0.5625q-0.24609375,0.31640625-0.755859375,1.01953125t-0.755859375,1.01953125q0.31640625-0.2109375,1.265625-0.861328125t1.4765625-0.966796875q0.10546875-0.0703125,0.38671875-0.2109375t0.38671875-0.228515625t0.2109375-0.263671875t0.140625-0.421875q-0.0703125,0.03515625-0.17578125,0.10546875t-0.17578125,0.123046875t-0.193359375,0.087890625t-0.228515625,0.03515625z M125.484375,136.10546875l-0.0703125,0l0.0703125,0q-0.4921875,0-0.73828125-0.6328125q-0.17578125,0.3515625-0.38671875,0.685546875t-0.509765625,0.685546875t-0.4921875,0.59765625t-0.580078125,0.650390625t-0.52734375,0.544921875l-0.59765625,0.59765625l-0.5625,0.5625q4.67578125-2.70703125,5.58984375-3.3046875q-0.24609375,0-0.6328125-0.17578125t-0.5625-0.2109375z M123.90234375,126.19140625q0-0.140625,0.0703125-0.140625l-0.24609375,0.140625l0.10546875,0.0703125z M136.48828125,124.75q0,0.03515625,0.03515625,0.10546875t0.03515625,0.10546875q0.2109375-0.52734375,0.6328125-1.01953125t1.037109375-1.0546875t0.861328125-0.80859375q0.31640625-0.31640625,1.37109375-1.265625t1.740234375-1.65234375t1.283203125-1.40625q-0.73828125,0.17578125-2.6015625,1.30078125q-2.70703125,1.6171875-4.67578125,2.953125q-0.0703125,0.03515625-0.3515625,0.228515625t-0.52734375,0.38671875t-0.2109375,0.228515625t0.10546875,0.158203125t0.10546875,0.158203125q0.0703125,0.10546875,0.228515625,0.28125t0.228515625,0.28125q0.10546875,0.17578125,0.3515625,0.509765625t0.3515625,0.509765625z M137.4375,126.26171875q0.03515625,0,0.0703125,0.10546875q0.03515625,0.0703125,0.0703125,0.10546875q-0.0703125-0.140625-0.0703125-0.3515625q0-0.24609375,0.158203125-0.509765625t0.474609375-0.544921875t0.544921875-0.45703125t0.580078125-0.404296875t0.38671875-0.263671875q0.17578125-0.10546875,1.845703125-1.08984375t3.09375-1.845703125t1.388671875-1.001953125q-2.0390625,1.16015625-4.1484375,2.49609375q-0.52734375,0.3515625-1.494140625,1.001953125t-1.775390625,1.177734375t-1.51171875,0.9140625q0.03515625,0.10546875,0.193359375,0.333984375t0.193359375,0.333984375z M138.4921875,136.7734375l-0.28125,0.2109375q0.0703125-0.0703125,0.28125-0.2109375l-0.0703125,0q-0.10546875,0-0.369140625-0.0703125t-0.333984375-0.0703125l-0.0703125,0l-0.0703125,0.0703125q-0.52734375,0.38671875-0.52734375,0.5625q0,0.03515625-0.03515625,0.10546875l-0.03515625,0.45703125q0.28125-0.24609375,0.84375-0.615234375t0.66796875-0.439453125z M134.8359375,139.19921875l0.0703125,0l-0.0703125,0l0.0703125,0q0.2109375,0,0.2109375-0.28125z M140.14453125,141.02734375q0.24609375,0,0.80859375-0.017578125t0.7734375-0.052734375t0.580078125-0.158203125t0.720703125-0.369140625q0.703125-0.5625,2.00390625-1.51171875t1.828125-1.37109375q0.59765625-0.421875,3.041015625-2.28515625t3.779296875-2.8125q-2.63671875,0.984375-6.609375,3.7265625q-2.0390625,1.44140625-7.13671875,4.67578125q0.03515625,0.03515625,0.10546875,0.087890625t0.10546875,0.087890625z M146.05078125,140.95703125l0.0703125-0.10546875l-0.0703125,0.10546875q0.31640625-0.31640625,0.59765625-0.31640625q0.0703125,0,0.3515625,0.140625q0.4921875-0.2109375,0.5625-0.2109375q0.87890625-0.87890625,1.37109375-1.30078125q1.51171875-1.3359375,3.97265625-3.3046875q-7.34765625,4.21875-8.578125,4.88671875q0.87890625,0,1.72265625,0.10546875z M157.08984375,140.78125q0.17578125-0.03515625,0.298828125-0.17578125t0.24609375-0.38671875t0.228515625-0.3515625q0.4921875-0.6328125,1.65234375-1.79296875q-2.49609375,1.6875-3.8671875,2.49609375q0.52734375,0.2109375,1.44140625,0.2109375z M159.90234375,140.5703125q0.2109375,0.0703125,0.5625-1.30078125q-0.73828125,0.24609375-2.14453125,1.51171875l0.2109375,0q0.2109375,0,0.66796875-0.10546875t0.703125-0.10546875z M228.940078125,129.21484375l0.0703125,0.140625l-0.0703125-0.140625q0.0703125,0.0703125,0.0703125,0.2109375q0,0.24609375-0.369140625,0.73828125t-0.404296875,0.6328125q0,0.421875-0.140625,0.984375q-0.0703125,0.2109375-0.123046875,0.73828125t-0.17578125,0.9140625t-0.439453125,0.59765625q0,0.421875-0.45703125,1.16015625t-0.4921875,1.125q-0.03515625,0.24609375-0.439453125,0.87890625t-0.615234375,0.80859375q-0.38671875,0.140625-0.544921875,0.861328125t-0.404296875,0.931640625q-0.140625,0.10546875-0.4921875,0.474609375t-0.59765625,0.509765625q-0.10546875,0.0703125-0.228515625,0.10546875t-0.193359375,0.052734375t-0.158203125,0.087890625t-0.123046875,0.2109375q-0.2109375,0.4921875-0.73828125,0.4921875q-0.3515625,0-0.703125-0.3515625q-0.703125,0.3515625-0.80859375,0.3515625q-0.03515625,0-0.140625-0.03515625t-0.140625-0.03515625q-0.10546875-0.03515625-0.193359375-0.0703125t-0.123046875-0.087890625t-0.052734375-0.087890625t-0.052734375-0.03515625q-0.140625,0-0.28125,0.140625q-0.4921875,0.38671875-0.87890625,0.5625q-0.52734375,0.38671875-1.44140625,0.38671875q-0.140625,0-1.37109375-0.17578125q-1.265625,0-1.72265625-0.28125q-0.28125,0.140625-0.9140625,0.140625q-0.84375,0-1.828125-0.28125q-1.828125-0.17578125-2.49609375-0.5625q-0.24609375,0-1.58203125-0.66796875q-0.140625-0.03515625-0.38671875-0.24609375t-0.3515625-0.24609375q-0.28125,0.140625-0.84375,0.28125q-0.03515625,0-0.158203125,0.03515625t-0.158203125,0.03515625q-0.6328125,0-0.6328125-0.5625l0-0.2109375q-0.5625,0.5625-1.86328125,0.84375q-0.73828125,0.24609375-1.08984375,0.52734375q-0.421875,0.28125-0.87890625,0.28125l-0.140625,0q-0.140625,0-0.24609375-0.03515625t-0.17578125-0.03515625q-0.140625,0-0.3515625,0.140625q-0.87890625,0.3515625-1.01953125,0.421875q-0.66796875,0.31640625-1.23046875,0.421875q-0.31640625,0.0703125-1.001953125,0.38671875t-1.072265625,0.3515625q-0.03515625,0-0.140625,0.03515625t-0.140625,0.03515625q-0.31640625,0-0.52734375-0.2109375q-0.10546875-0.0703125-0.140625-0.28125t-0.140625-0.24609375q-0.10546875,0.10546875-0.3515625,0.10546875l-0.2109375,0q-0.421875,0.421875-0.80859375,0.421875l-0.140625,0q-0.140625,0-0.421875-0.140625q-0.28125,0.140625-0.59765625,0.140625l-0.2109375,0q-0.0703125-0.0703125-0.28125-0.0703125q-0.140625,0-0.52734375,0.17578125t-0.6328125,0.17578125q-0.140625,0-0.984375-0.421875q-0.24609375,0-0.94921875-0.28125q-0.0703125,0.0703125-0.28125,0.0703125q-0.31640625,0-0.80859375-0.24609375q-2.28515625-0.421875-4.53515625-0.6328125q-0.3515625-0.03515625-1.037109375-0.52734375t-0.966796875-0.84375q-0.52734375-0.28125-1.01953125-0.6328125q-0.4921875-0.24609375-0.9140625-0.52734375q-0.7734375-0.17578125-1.93359375-1.142578125t-1.40625-1.669921875q-0.0703125-0.0703125-0.17578125-0.31640625t-0.17578125-0.31640625q-0.0703125,0.03515625-0.24609375,0.10546875t-0.31640625,0.123046875t-0.28125,0.052734375q-0.3515625,0-0.45703125-0.2109375l-0.0703125-0.140625q0-0.10546875,0.10546875-0.24609375t0.2109375-0.2109375t0.28125-0.158203125t0.2109375-0.123046875l0.0703125-0.0703125q0-0.140625-0.140625-0.28125q-1.16015625-1.546875-1.16015625-2.35546875l0-0.0703125q-0.2109375-0.31640625-0.2109375-0.80859375q0-0.10546875-0.158203125-0.123046875t-0.263671875-0.158203125l0-0.140625q0-0.10546875,0.140625-0.333984375t0.140625-0.333984375q-0.03515625-0.0703125-0.45703125-1.79296875q-0.03515625,0-0.123046875,0.03515625t-0.158203125,0.03515625q-0.4921875,0-0.4921875-0.84375q0.10546875-0.7734375,0.7734375-1.58203125q0.31640625-0.3515625,0.474609375-1.08984375t0.333984375-1.01953125q0-0.17578125,0.4921875-1.65234375q0-0.31640625,0.263671875-1.01953125t0.474609375-0.984375q0.421875-0.421875,0.84375-0.59765625q0.10546875-0.3515625,0.38671875-0.4921875q0.3515625-0.28125,1.0546875-0.703125q0.2109375-0.140625,0.28125-0.28125t0.10546875-0.38671875t0.140625-0.421875q0.38671875-0.45703125,1.0546875-0.73828125q1.65234375-0.73828125,1.828125-0.84375q0.84375-1.3359375,1.125-1.72265625q1.16015625-1.51171875,2.3203125-1.51171875q0.03515625,0,0.158203125,0.03515625t0.193359375,0.03515625q-0.2109375-0.52734375-0.3515625-0.80859375q-0.0703125-0.10546875-0.28125-0.263671875t-0.2109375-0.298828125l0-0.140625q-0.10546875-0.10546875-0.24609375-0.38671875q-0.31640625-0.52734375-0.439453125-1.58203125t-0.263671875-1.44140625q-0.10546875,0.10546875-0.4921875,0.31640625t-0.59765625,0.2109375t-0.2109375-0.2109375l0-0.17578125q0.0703125-0.24609375,0.80859375-0.6328125q0.3515625-0.3515625,0.3515625-0.421875q0-0.03515625-0.03515625-0.10546875t-0.10546875-0.193359375t-0.140625-0.228515625q-0.38671875-0.59765625-0.38671875-1.58203125q0-0.17578125,0.17578125-1.0546875q0.28125-2.6015625,0.703125-3.83203125l0-0.28125q0-0.7734375,0.6328125-1.16015625q0.24609375-0.140625,0.650390625-0.509765625t0.650390625-0.509765625t0.3515625-0.228515625t0.140625-0.140625t0.10546875-0.24609375t0.140625-0.369140625t0.3515625-0.3515625t0.3515625-0.24609375q0.4921875-0.421875,1.51171875-0.703125q0.10546875-0.24609375,0.59765625-0.5625q1.30078125-0.9140625,2.63671875-1.23046875q0.28125-0.140625,0.38671875-0.140625q0.140625,0,0.28125,0.140625q0.2109375-0.2109375,0.421875-0.2109375q0.2109375,0.03515625,0.31640625,0.158203125t0.17578125,0.123046875q0.17578125,0,0.31640625-0.0703125q0.10546875-0.0703125,0.544921875-0.474609375t0.685546875-0.474609375q0.10546875-0.03515625,0.369140625-0.052734375t0.474609375-0.087890625q0.0703125-0.0703125,0.28125-0.0703125q0.24609375,0,0.84375,0.17578125t0.80859375,0.17578125q0.10546875,0,0.474609375,0.03515625t0.474609375,0.03515625q0.66796875,0.2109375,1.01953125,0.45703125q0.2109375,0.03515625,1.58203125,0.421875l0.703125,0.3515625q0.10546875,0,0.263671875-0.0703125t0.263671875-0.0703125l0.0703125,0q-0.0703125,0.0703125-0.0703125,0.2109375t0.123046875,0.2109375t0.31640625,0.123046875t0.263671875,0.087890625q0.59765625,0.38671875,0.6328125,0.38671875l0.17578125,0q0.140625-0.0703125,0.3515625-0.0703125q0.24609375,0,0.3515625,0.28125q0,0.24609375,0.580078125,0.87890625t0.861328125,0.6328125q0.421875,0,0.421875,0.2109375q0,0.0703125-0.03515625,0.24609375t-0.03515625,0.24609375l0,0.0703125q0.03515625,0.03515625,0.140625,0.228515625t0.140625,0.228515625q0.4921875,0.38671875,0.66796875,1.72265625q0.28125,1.01953125,0.4921875,2.42578125q0.2109375-0.2109375,0.80859375-0.2109375q0.3515625,0,0.3515625,0.2109375q0,0.17578125-0.2109375,0.38671875q-0.0703125,0.0703125-0.59765625,0.421875l0,0.140625q0,0.28125-0.28125,0.28125q0.0703125,0.3515625,0.0703125,1.16015625q0,0.4921875-0.0703125,0.703125q0,0.0703125,0.03515625,0.24609375t0.03515625,0.28125q0,0.87890625-0.5625,2.00390625q-0.38671875,0.984375-0.4921875,1.08984375q0,0.140625,0.10546875,0.439453125t0.10546875,0.404296875q-0.0703125,0.703125-1.30078125,1.51171875q-0.4921875,0.421875-1.705078125,1.388671875t-1.845703125,1.564453125q-1.08984375,1.0546875-1.86328125,1.23046875q-0.7734375,0.31640625-0.7734375,0.52734375q0,0.03515625,0.03515625,0.10546875t0.03515625,0.10546875q0.10546875,0.17578125,0.404296875,0.474609375t0.369140625,0.439453125q0.5625,1.01953125,0.87890625,1.37109375l0.0703125,0.0703125q0.0703125,0,0.3515625-0.140625t0.421875-0.140625q0.2109375,0,0.31640625,0.2109375q0,0.03515625,0.03515625,0.0703125t0.03515625,0.0703125q0,0.140625-0.298828125,0.421875t-0.298828125,0.38671875q0.24609375,0.421875,0.861328125,1.16015625t0.861328125,1.125q0.3515625,0.59765625,1.4765625,1.58203125t1.4765625,1.6171875q0.7734375,0.38671875,1.08984375,1.125q0.17578125,0.17578125,0.439453125,0.5625t0.369140625,0.52734375q0.10546875-0.03515625,0.2109375-0.509765625t0.28125-0.580078125q0.31640625-0.24609375,0.3515625-0.3515625q0.03515625-0.17578125,0.17578125-0.31640625q0.03515625-0.0703125,0.03515625-0.10546875q-0.0703125-0.0703125-0.140625-0.2109375q0-0.03515625-0.03515625-0.123046875t-0.03515625-0.123046875q0-0.17578125,0.2109375-0.28125q0.38671875-0.28125,0.45703125-0.421875l0-0.140625q0-0.45703125,0.421875-1.30078125q0.38671875-1.125,0.5625-1.44140625l0-0.0703125q0-0.24609375,0.228515625-0.703125t0.228515625-0.66796875l0-0.2109375q0-0.03515625-0.052734375-0.28125t-0.123046875-0.369140625t-0.2109375-0.087890625q-0.0703125-0.03515625-0.31640625,0.123046875t-0.52734375,0.333984375t-0.3515625,0.2109375l-0.24609375,0.0703125q-0.28125,0-0.28125-0.28125q0-0.421875,0.45703125-0.52734375q-0.59765625,0-1.01953125-0.140625q-0.31640625,0.2109375-0.80859375,0.2109375q-0.0703125,0-0.228515625-0.03515625t-0.193359375-0.03515625q-0.52734375-0.03515625-0.7734375-0.298828125t-0.28125-0.52734375t-0.03515625-0.826171875q-0.0703125-0.28125-0.0703125-0.9140625l0-1.79296875l0-0.87890625q-0.140625,0.0703125-0.28125,0.0703125t-0.140625-0.140625q0-0.17578125,0.17578125-0.52734375t0.24609375-0.421875q-0.140625-0.28125-0.140625-0.5625q0-0.84375,0.421875-0.94921875q0.421875-0.421875,1.44140625-0.421875l0.17578125,0q0.421875,0.140625,0.703125,0.421875q0.2109375-0.2109375,0.4921875-0.2109375l0.2109375,0l0.66796875,0q0.52734375-0.3515625,0.7734375-0.3515625q0.03515625,0,0.123046875,0.03515625t0.123046875,0.03515625q0.10546875,0.03515625,0.509765625,0.052734375t0.615234375,0.087890625q0.28125-0.140625,0.45703125-0.140625q0.2109375,0,0.28125,0.0703125q0.140625,0,0.421875,0.140625q0.10546875,0,0.333984375-0.03515625t0.333984375-0.03515625q0.421875,0,0.6328125,0.0703125q0.0703125-0.0703125,1.08984375-0.0703125l0.28125,0q0.2109375,0.0703125,0.5625,0.0703125l0.73828125,0l0.3515625,0q0.2109375,0,0.580078125,0.10546875t0.580078125,0.10546875q0.03515625,0,0.123046875-0.03515625t0.158203125-0.03515625l0.3515625,0q1.01953125,0,1.30078125,0.28125q0.2109375-0.2109375,0.94921875-0.2109375l0.7734375,0l0.140625,0q0.10546875,0,0.31640625-0.0703125t0.3515625-0.0703125t0.2109375,0.0703125q0.140625,0.0703125,0.84375,0.2109375q0.80859375,0,1.30078125,0.0703125q1.125-0.28125,1.23046875-0.28125q0.3515625,0,0.4921875,0.140625q0.140625-0.0703125,0.38671875-0.0703125q0.2109375,0,0.3515625,0.193359375t0.24609375,0.52734375t0.17578125,0.439453125q0.0703125-0.0703125,0.2109375-0.0703125q0.52734375,0,0.52734375,0.87890625q0,0.3515625-0.140625,0.4921875q0.421875,0.17578125,0.421875,0.3515625q0,0.140625-0.2109375,0.333984375t-0.421875,0.333984375t-0.17578125,0.2109375q0.6328125-0.31640625,0.66796875-0.31640625q0.17578125,0,0.28125,0.17578125q0.0703125,0.0703125,0.0703125,0.28125q0,0.45703125-0.703125,0.984375q-0.38671875,0.28125-0.38671875,0.94921875q0,0.140625,0.03515625,0.4921875t0.03515625,0.52734375q0,0.59765625-0.421875,0.84375q-0.28125,0.140625-1.08984375,0.140625q-0.10546875,0-0.31640625,0.03515625t-0.31640625,0.03515625q-0.28125,0-0.3515625-0.0703125q-0.0703125,0.0703125-0.52734375,0.333984375t-0.5625,0.263671875l-0.0703125,0q-0.59765625,0-0.94921875-0.3515625q-0.03515625,0.17578125-0.28125,0.59765625t-0.28125,0.45703125q-0.28125,0.4921875-1.08984375,0.80859375q-0.5625,0.421875-1.72265625,0.984375q-0.28125,0.10546875-0.333984375,0.158203125t-0.0703125,0.158203125t-0.228515625,0.28125l0,0.140625q0,0.10546875,0.0703125,0.263671875t0.0703125,0.228515625q0,0.2109375-0.140625,0.28125q-0.5625,0.421875-0.80859375,0.66796875q-0.2109375,0.2109375-0.31640625,0.5625t-0.17578125,0.45703125t-0.28125,0.28125t-0.24609375,0.3515625q-0.24609375,0.703125-0.84375,1.51171875q-0.421875,1.6875-0.73828125,2.07421875q-0.66796875,0.87890625-1.79296875,1.44140625q-0.0703125,0.0703125-0.123046875,0.31640625t-0.087890625,0.28125q-0.10546875,0.17578125-0.7734375,0.6328125q0.24609375,0,0.4921875,0.17578125t0.2109375,0.421875q-0.140625,0.4921875-0.140625,0.5625t0.0703125,0.0703125l0-0.0703125q0.3515625,0.10546875,0.3515625,0.3515625q0.4921875,0.24609375,1.23046875,0.3515625q0.140625,0,0.298828125,0.03515625t0.263671875,0.03515625l0.24609375,0q0.45703125,0,0.984375,0.17578125q0.17578125-0.17578125,0.421875-0.17578125q0.3515625,0,0.66796875,0.10546875q0.24609375,0,0.439453125-0.298828125t0.333984375-0.369140625q0.38671875-0.2109375,0.720703125-0.966796875t0.509765625-0.966796875q0.421875-0.52734375,0.52734375-1.01953125l0-0.2109375q0-0.94921875,0.2109375-1.37109375q0-0.31640625-0.0703125-1.037109375t-0.0703125-1.037109375l0-0.31640625q0.03515625-0.6328125,0.087890625-0.966796875t0.2109375-0.73828125t0.509765625-0.544921875t0.9140625-0.10546875l0.4921875,0q0.59765625,0,0.73828125,0.140625q0.0703125-0.03515625,0.3515625-0.263671875t0.4921875-0.228515625q0.0703125,0,0.3515625,0.140625t0.38671875,0.140625q0.0703125,0,0.228515625-0.03515625t0.263671875-0.03515625q0.2109375-0.140625,0.6328125-0.140625q0.52734375,0,0.66796875,0.140625q0.984375-0.10546875,1.353515625,0.474609375t0.369140625,1.669921875q0,0.421875-0.03515625,1.1953125t-0.03515625,1.125q0,1.01953125,0.2109375,1.37109375z M224.967421875,130.8671875q1.6875-0.84375,1.6875-1.01953125q-0.28125,0.140625-1.6875,1.01953125z M210.799453125,140.078125l0.94921875-0.2109375l-0.94921875,0.2109375q1.58203125-0.38671875,4.88671875-2.4609375q3.48046875-2.1796875,6.1171875-4.078125q-1.72265625,1.0546875-5.66015625,3.375q-0.6328125,0.3515625-1.916015625,1.107421875t-1.916015625,1.107421875q-0.140625,0.140625-0.80859375,0.5625t-0.703125,0.38671875z M215.334609375,135.12109375q-1.23046875,1.125-2.7421875,2.42578125q3.0234375-1.72265625,3.62109375-2.14453125q-0.0703125-0.03515625-0.263671875-0.0703125t-0.3515625-0.087890625t-0.263671875-0.123046875z M222.471328125,125.6640625l0.0703125,0l-0.0703125,0q0.2109375,0,0.4921875-0.28125q-0.03515625,0-0.0703125-0.03515625t-0.0703125-0.03515625q-0.0703125,0-0.123046875,0.052734375t-0.123046875,0.158203125t-0.10546875,0.140625z M225.494765625,129.49609375q0.0703125-0.03515625,0.31640625-0.140625t0.421875-0.193359375t0.38671875-0.228515625t0.333984375-0.28125t0.123046875-0.31640625q-0.10546875,0.2109375-0.369140625,0.421875t-0.685546875,0.439453125t-0.52734375,0.298828125z M226.795546875,125.98046875l-0.87890625,0.703125l0.87890625-0.703125q-2.14453125,1.828125-2.7421875,2.42578125q-0.140625,0.140625-0.59765625,0.509765625t-0.755859375,0.703125t-0.369140625,0.650390625q0.3515625-0.3515625,2.00390625-1.353515625t2.390625-1.001953125q0.24609375,0,0.3515625,0.2109375l0-0.140625q0-0.140625,0.0703125-0.52734375t0.0703125-0.5625q0-0.28125-0.0703125-0.3515625q-0.03515625-0.03515625-0.17578125-0.24609375t-0.17578125-0.31640625z M223.631484375,127.84375l0.0703125-0.0703125q-0.24609375,0.140625-0.24609375,0.2109375q0.10546875-0.0703125,0.17578125-0.140625q0.5625-0.5625,0.703125-0.66796875q-1.08984375,0.6328125-1.37109375,0.80859375q-0.17578125,0.10546875-0.24609375,0.17578125t-0.087890625,0.140625t-0.03515625,0.24609375t-0.052734375,0.3515625q0.17578125-0.17578125,0.544921875-0.52734375t0.544921875-0.52734375z M222.471328125,126.82421875q0.03515625-0.0703125,0.0703125-0.17578125t0.0703125-0.17578125q-0.140625,0.140625-0.140625,0.2109375l0,0.140625z M224.264296875,125.1015625l-0.0703125,0.0703125l0.0703125,0l0-0.0703125q-0.28125,0.28125-0.4921875,0.3515625l0,0.140625q0,0.31640625-0.2109375,0.52734375q-0.0703125,0.17578125-0.228515625,0.4921875t-0.228515625,0.4921875q0.5625-0.31640625,1.65234375-0.966796875t1.65234375-0.966796875l-0.140625,0q-0.0703125,0-0.24609375-0.03515625t-0.24609375-0.03515625q-0.10546875,0-0.45703125,0.03515625t-0.5625,0.03515625q-0.3515625,0-0.4921875-0.0703125z M206.756484375,138.42578125l0.31640625-0.2109375q-0.31640625,0.140625-0.31640625,0.2109375q1.1953125-0.87890625,3.708984375-2.197265625t3.076171875-1.634765625q-0.59765625-0.4921875-0.80859375-0.4921875q-0.17578125,0-0.6328125,0.28125q-1.3359375,0.84375-2.53125,1.79296875q-0.17578125,0.10546875-0.87890625,0.66796875t-1.3359375,1.072265625t-0.59765625,0.509765625z M206.404921875,135.68359375q0.52734375-0.3515625,0.5625-0.3515625l-0.5625,0.3515625q1.3359375-0.87890625,3.09375-2.07421875q-2.35546875,1.3359375-4.88671875,3.0234375l0.140625,0q0.45703125,0,1.65234375-0.94921875z M205.983046875,137.7578125l0.140625,0.0703125q0.140625,0,0.31640625-0.123046875t0.369140625-0.298828125t0.263671875-0.2109375q-0.17578125,0.10546875-0.544921875,0.28125t-0.544921875,0.28125z M214.912734375,125.875q0.140625-0.0703125,0.140625-0.28125q-0.9140625,0.59765625-3.33984375,2.1796875t-3.7265625,2.408203125t-3.33984375,1.96875t-3.796875,1.880859375l-0.263671875,0.10546875t-0.17578125,0.087890625t-0.123046875,0.10546875t-0.087890625,0.087890625t-0.0703125,0.123046875t-0.03515625,0.158203125t-0.0703125,0.2109375t-0.087890625,0.28125q-0.2109375,0.7734375-0.87890625,0.7734375q-0.3515625,0-0.6328125-0.28125q-0.2109375-0.2109375-0.3515625-0.2109375q-0.03515625,0-0.17578125,0.0703125t-0.28125,0.0703125t-0.28125-0.0703125q-0.421875,0.5625-0.703125,0.5625q-0.2109375,0-0.333984375,0.03515625t-0.263671875,0.123046875t-0.28125,0.123046875q0,0.421875-0.703125,0.87890625q-2.390625,2.390625-3.48046875,3.76171875q0.24609375,0,0.421875-0.03515625t0.228515625-0.052734375t0.263671875-0.158203125l0.31640625-0.2109375q0.28125-0.140625,0.4921875-0.140625q0.24609375,0,0.38671875,0.0703125q0.703125-0.421875,0.984375-0.6328125q0.24609375-0.17578125,1.8984375-1.265625t2.49609375-1.6875q7.03125-4.67578125,7.69921875-5.0625q3.4453125-2.07421875,4.9921875-2.49609375q0.38671875-0.17578125,0.80859375-0.5625t0.6328125-0.52734375q0.52734375-0.3515625,1.01953125-1.0546875t0.703125-1.3359375z M179.264296875,137.546875l0.3515625-0.2109375q-0.3515625,0.140625-0.3515625,0.2109375q0.66796875-0.38671875,1.37109375-0.861328125t1.529296875-1.08984375t1.283203125-0.931640625q0.24609375-0.140625,0.80859375-0.580078125t1.037109375-0.703125t0.896484375-0.298828125q-0.2109375-0.28125-1.08984375-1.072265625t-1.08984375-1.423828125q-0.24609375,0.2109375-0.720703125,0.59765625t-0.720703125,0.59765625q1.125-0.5625,1.44140625-0.5625q0.4921875,0,0.59765625,0.4921875q0.0703125,0.4921875-0.80859375,1.37109375q-0.17578125,0.2109375-1.318359375,1.318359375t-2.1796875,2.109375t-1.037109375,1.037109375z M175.818984375,133.75l0.140625-0.2109375q-0.140625,0.0703125-0.140625,0.2109375q4.46484375-3.76171875,6.46875-6.046875q-3.26953125,1.96875-5.90625,3.3046875q-0.703125,0.421875-1.37109375,0.421875l-0.28125,0q0.03515625,0.5625,0.52734375,1.37109375t0.5625,0.94921875z M184.291640625,110.0546875q0.03515625,0.03515625,1.546875-1.318359375t1.72265625-1.634765625q-1.6171875,1.0546875-3.26953125,2.00390625q-0.2109375,0.10546875-0.2109375,0.38671875q0,0.140625,0.2109375,0.5625z M191.217421875,121.33984375l-0.140625-0.28125l0.140625,0.28125q-0.0703125-0.140625-0.0703125-0.421875q0-0.24609375,0.123046875-0.509765625t0.333984375-0.52734375t0.439453125-0.4921875t0.544921875-0.4921875t0.509765625-0.421875t0.474609375-0.3515625t0.31640625-0.228515625q0.10546875-0.10546875,0.826171875-0.615234375t1.318359375-0.966796875t0.52734375-0.5625q-0.24609375-0.3515625-0.24609375-0.59765625q0-0.31640625,0.439453125-0.7734375t0.509765625-0.59765625q-0.703125,0.45703125-2.14453125,1.388671875t-2.1796875,1.423828125q-0.421875,0.24609375-1.177734375,0.755859375t-1.177734375,0.755859375q-0.0703125,0.0703125-0.38671875,0.228515625t-0.509765625,0.333984375t-0.193359375,0.31640625l0,0.0703125q0.10546875,0.140625,1.30078125,2.14453125q0.7734375,1.51171875,1.1953125,1.51171875q0.17578125,0,0.24609375-0.0703125q0.17578125-0.140625,1.16015625-0.826171875t1.3359375-0.966796875t1.08984375-0.84375t1.265625-1.037109375t0.984375-1.001953125q-0.17578125-0.17578125-1.40625,0.73828125t-2.7421875,1.93359375t-2.21484375,1.01953125q-0.38671875,0-0.4921875-0.31640625z M199.479140625,120.00390625l-0.28125,0.28125l0.28125-0.28125q-0.52734375,0.38671875-1.529296875,1.16015625t-1.494140625,1.1953125q1.7578125-1.125,3.41015625-1.93359375q-0.140625-0.31640625-0.38671875-0.421875z M195.401015625,127.24609375l0.2109375-0.2109375l-0.2109375,0.2109375q1.1953125-1.1953125,4.39453125-3.796875q-1.72265625,0.84375-4.9921875,3.09375q0.10546875,0.10546875,0.298828125,0.3515625t0.298828125,0.3515625z M194.240859375,125.8046875l0.87890625-0.703125l-0.87890625,0.703125q0.87890625-0.73828125,2.583984375-2.1796875t2.583984375-2.1796875q-2.671875,1.4765625-5.73046875,3.5859375q0.140625,0.2109375,0.5625,0.7734375z M196.455703125,121.4453125l0.10546875-0.10546875q0.03515625,0-0.087890625,0.123046875t-0.263671875,0.228515625l-0.10546875,0.10546875l0.3515625-0.3515625q0.45703125-0.28125,1.37109375-1.01953125q-3.55078125,2.49609375-5.09765625,3.375q0.0703125,0.140625,0.3515625,0.421875q0.31640625-0.24609375,3.375-2.77734375z M175.889296875,121.5859375q0,0.28125-0.0703125,0.3515625q0.87890625-0.28125,1.86328125-0.826171875t1.599609375-0.94921875t1.7578125-1.248046875t1.529296875-1.08984375q1.51171875-1.0546875,4.5-3.146484375t4.5-3.111328125q-0.703125,0.31640625-1.93359375,0.94921875t-1.65234375,0.84375q-1.16015625,0.59765625-2.3203125,1.30078125q-0.38671875,0.17578125-0.9140625,0.650390625t-0.80859375,0.650390625q-0.52734375,0.3515625-0.94921875,0.7734375q-0.38671875,0.38671875-0.703125,0.38671875l-0.2109375,0l-0.140625,0q-0.17578125,0-0.45703125,0.2109375q-0.3515625,0.2109375-0.9140625,0.6328125q-0.421875,0.24609375-0.685546875,0.826171875t-0.404296875,0.755859375q-0.3515625,0.45703125-0.7734375,0.45703125t-0.73828125-0.31640625q-0.4921875,1.30078125-1.16015625,1.37109375q-0.2109375,0-0.509765625,0.17578125t-0.404296875,0.3515625z M191.639296875,108.26171875l-0.2109375,0.28125q0.2109375-0.2109375,0.2109375-0.28125q-1.4765625,1.72265625-3.9375,3.9375q0.4921875-0.31640625,1.564453125-1.1953125t1.740234375-1.23046875q0.421875-0.140625,0.5625-0.140625q0.2109375,0,0.28125,0.0703125q0.52734375,0.52734375,0.52734375,0.703125q0,0.2109375-0.28125,0.2109375q0.2109375,0.10546875,0.2109375,0.38671875q0.4921875-0.28125,0.4921875-0.38671875t-0.2109375-0.421875q-0.03515625-0.03515625-0.0703125-0.140625t-0.087890625-0.2109375t-0.123046875-0.2109375q-0.5625-1.125-0.66796875-1.37109375z M201.940078125,96.30859375l-0.0703125,0l0.0703125,0l-0.421875,0.2109375q0.0703125-0.03515625,0.158203125-0.10546875t0.158203125-0.123046875t0.10546875-0.052734375l0,0.0703125z M204.682265625,100.5625l-0.0703125,0.28125l0.0703125-0.28125q-0.2109375,0.6328125-0.703125,1.23046875t-1.3359375,1.388671875t-1.0546875,1.037109375q0.17578125-0.10546875,0.931640625-0.615234375t1.265625-0.7734375t1.037109375-0.404296875q0.140625-0.140625,0.140625-0.421875q0-0.59765625-0.28125-1.44140625z M201.799453125,102.98828125l0.140625-0.2109375l-0.5625,0.66796875q0.140625-0.10546875,0.421875-0.45703125q1.6171875-1.6171875,2.14453125-2.49609375q-0.7734375,0.31640625-2.07421875,1.30078125t-1.51171875,1.125q-0.421875,0.3515625-0.421875,1.79296875l0,0.52734375q0.10546875-0.31640625,0.3515625-0.66796875t0.45703125-0.5625t0.59765625-0.580078125t0.45703125-0.439453125z M199.197890625,99.33203125l0,0.0703125l0-0.0703125l0,0.0703125q0.0703125,0,0.0703125-0.0703125l-0.0703125,0z M175.151015625,123.44921875q0,0.0703125,0.0703125,0.0703125q0.17578125,0,0.685546875-0.31640625t0.685546875-0.4921875q0.28125-0.17578125,0.861328125-0.52734375t0.861328125-0.52734375q0.73828125-0.45703125,2.162109375-1.283203125t1.810546875-1.037109375q1.1953125-0.66796875,4.74609375-2.443359375t5.4140625-2.865234375q6.50390625-3.97265625,8.40234375-5.2734375q2.8828125-2.00390625,3.48046875-2.53125q0.703125-0.6328125,0.703125-1.86328125q-0.84375,0.140625-1.828125,0.580078125t-1.599609375,0.826171875t-1.72265625,1.142578125t-1.458984375,0.966796875q-0.421875,0.28125-0.59765625,0.45703125l0,0.2109375q0,0.28125-0.0703125,0.3515625q-0.2109375,0.2109375-0.421875,0.2109375q-0.140625,0-0.28125-0.140625l-0.28125-0.140625q-0.140625,0-0.140625,0.28125l0,0.45703125q0,0.45703125-0.17578125,0.6328125q-0.140625,0.140625-0.45703125,0.28125t-0.45703125,0.28125q-0.421875,0.703125-0.94921875,0.87890625q-0.28125,0.140625-0.5625,0.140625q-0.59765625,0-0.87890625-0.4921875q-1.4765625,1.01953125-5.80078125,4.078125t-6.78515625,4.7109375q-2.07421875,1.44140625-3.69140625,2.14453125q-0.52734375,0.31640625-1.125,0.421875q-0.28125,0.0703125-0.38671875,0.38671875t-0.2109375,0.421875z M203.522109375,108.89453125l-0.0703125,0l0.0703125,0l0-0.0703125q0-0.17578125,0.158203125-0.4921875t0.193359375-0.45703125q-0.73828125,0.52734375-2.302734375,1.564453125t-2.302734375,1.564453125q1.96875-0.94921875,2.7421875-1.23046875q1.3359375-0.66796875,1.51171875-0.87890625z M197.967421875,113.2890625l0,0.0703125l0-0.0703125q-0.03515625,0.03515625-0.10546875,0.0703125t-0.10546875,0.0703125q0.2109375,0,0.2109375-0.140625z M185.170546875,118.9140625q-4.21875,2.390625-8.6484375,4.74609375q3.26953125-1.23046875,8.6484375-4.74609375z M191.147109375,116.2421875q-0.45703125,0.24609375-1.318359375,0.791015625t-1.283203125,0.791015625q0.3515625,0.24609375,0.3515625,0.421875q3.5859375-2.56640625,7.9453125-5.37890625q-2.07421875,0.984375-5.6953125,3.375z M204.330703125,99.19140625q-1.58203125,1.16015625-1.79296875,1.37109375q1.08984375-0.87890625,1.65234375-0.87890625q0.28125,0,0.3515625,0.0703125q-0.03515625-0.0703125-0.10546875-0.28125t-0.10546875-0.28125z M203.522109375,97.75q-0.17578125-0.17578125-1.44140625,0.6328125t-1.86328125,1.30078125l-0.263671875,0.17578125l-0.2109375,0.140625t-0.140625,0.10546875t-0.10546875,0.140625t-0.017578125,0.140625l0.17578125,0.52734375q0.2109375,0.84375,0.2109375,0.9140625q0.73828125-0.6328125,1.58203125-1.265625q-0.03515625,0-0.228515625,0.140625t-0.38671875,0.24609375t-0.333984375,0.10546875q-0.2109375,0-0.2109375-0.28125l0-0.140625q0-0.140625,0.2109375-0.333984375t0.5625-0.421875t0.38671875-0.263671875q0.0703125-0.0703125,0.650390625-0.509765625t1.037109375-0.84375t0.38671875-0.509765625z M195.611953125,99.68359375l-0.0703125,0l0.0703125,0q-1.16015625,0.66796875-1.58203125,0.703125l-0.140625,0q-0.0703125,0-0.17578125-0.03515625t-0.17578125-0.03515625q-0.03515625,0-0.087890625,0.03515625l-0.10546875,0.0703125t-0.123046875,0.0703125q-0.140625,0.0703125-0.421875,0.0703125q-0.140625,0.38671875-0.28125,1.3359375q-0.0703125,0.2109375-0.298828125,0.5625t-0.228515625,0.59765625q0,0.17578125,0.10546875,0.38671875q0.140625,0.28125,0.140625,0.3515625q0,0.17578125-0.123046875,0.4921875t-0.123046875,0.4921875l0,0.24609375q0.03515625,0.0703125,0.10546875,0.28125t0.140625,0.333984375t0.2109375,0.158203125q0.17578125,0.03515625,0.4921875,1.58203125q0.17578125,0.24609375,0.439453125,0.826171875t0.439453125,0.826171875q0.421875-0.421875,0.7734375-0.421875q0.24609375,0,0.52734375,0.140625q0.140625-0.0703125,0.158203125-0.263671875t0.123046875-0.298828125q0.03515625-0.0703125,0.703125-0.73828125q0.10546875-0.10546875,0.31640625-0.421875t0.421875-0.421875q0.03515625-0.03515625,0.158203125-0.10546875t0.158203125-0.087890625t0.140625-0.087890625t0.123046875-0.10546875t0.10546875-0.087890625t0.123046875-0.10546875t0.087890625-0.123046875t0.087890625-0.140625l0.0703125-0.140625t0.0703125-0.17578125q0.38671875-1.01953125,0.38671875-1.44140625q-0.0703125-0.3515625-0.0703125-1.72265625q0-0.0703125-0.158203125-0.615234375t-0.158203125-0.755859375q-0.28125-0.73828125-0.6328125-0.73828125q-0.0703125,0-0.3515625,0.140625q-0.0703125,0.0703125-0.2109375,0.0703125q-0.17578125,0-0.298828125-0.228515625t-0.158203125-0.263671875q-0.28125,0-0.703125-0.2109375z M190.197890625,104.359375l-0.3515625,0.28125q0.3515625-0.2109375,0.3515625-0.28125q-2.35546875,1.7578125-2.7421875,2.00390625q0.03515625-0.03515625,0.66796875-0.474609375t1.125-0.66796875t0.80859375-0.123046875q0.28125,0.10546875,0.28125,0.2109375q0,0.140625-0.158203125,0.3515625t-0.31640625,0.369140625t-0.3515625,0.31640625t-0.228515625,0.193359375q-3.4453125,3.05859375-4.11328125,3.7265625q0.140625-0.0703125,0.87890625-0.4921875t1.51171875-0.861328125t1.599609375-0.931640625t1.318359375-0.87890625t0.45703125-0.4921875q-0.73828125-1.65234375-0.73828125-2.25z M188.404921875,109.10546875l-0.4921875,0.38671875l0.7734375-0.52734375q-0.0703125,0-0.28125,0.140625q-0.421875,0.24609375-1.58203125,0.966796875t-1.79296875,1.072265625q0.421875,0.421875,0.421875,0.84375q0.140625,0.421875,0.140625,0.52734375l0,0.140625q0,0.6328125-0.140625,0.6328125q0.66796875-0.52734375,3.4453125-3.1640625q0.0703125-0.0703125,0.421875-0.38671875t0.66796875-0.615234375t0.650390625-0.650390625t0.4921875-0.66796875t0.087890625-0.4921875q-1.72265625,1.125-2.8125,1.79296875z M174.658828125,125.453125l0-0.0703125l0,0.0703125l0,0.140625q1.0546875-0.703125,2.00390625-1.23046875q-0.73828125,0.24609375-1.23046875,0.24609375l-0.28125,0q-0.10546875,0.0703125-0.158203125,0.140625t-0.10546875,0.158203125t-0.0703125,0.158203125t-0.052734375,0.17578125t-0.10546875,0.2109375z M174.377578125,126.61328125q0.03515625-0.10546875,0.474609375-0.3515625t0.94921875-0.509765625t0.580078125-0.298828125q0.52734375-0.28125,1.494140625-0.84375t1.248046875-0.73828125q0.52734375-0.28125,1.494140625-0.861328125t1.458984375-0.861328125q0.2109375-0.140625,0.685546875-0.439453125t0.685546875-0.439453125q0.3515625-0.17578125,0.3515625-0.2109375l0-0.0703125q0-0.2109375,0.0703125-0.3515625q-0.984375,0.59765625-9.4921875,5.9765625z M182.990859375,123.80078125l-0.3515625,0.3515625q0.3515625-0.28125,0.3515625-0.3515625q-1.58203125,1.37109375-4.88671875,3.83203125q1.65234375-1.0546875,3.375-2.109375q0.84375-0.421875,0.87890625-0.421875q0.2109375,0,0.28125,0.140625l0,0.140625q0,0.28125-0.0703125,0.3515625q-0.45703125,0.59765625-1.1953125,1.1953125t-1.775390625,1.265625t-1.423828125,0.94921875q3.12890625-1.93359375,4.81640625-3.09375l0-0.73828125l0-1.51171875z M183.236953125,127.6328125l-0.140625,0.2109375l0.140625-0.2109375q-0.6328125,0.87890625-2.3203125,2.42578125q0.2109375-0.10546875,0.615234375-0.333984375t0.66796875-0.38671875t0.6328125-0.28125t0.685546875-0.158203125q-0.140625-0.84375-0.28125-1.265625z M186.541640625,133.8203125q-4.11328125,2.77734375-5.1328125,3.65625q0.84375-0.45703125,1.7578125-1.072265625t1.986328125-1.423828125t1.669921875-1.23046875l-0.140625-0.140625q0,0.0703125-0.140625,0.2109375z M187.842421875,134.734375l-0.2109375,0.24609375q0.2109375-0.17578125,0.2109375-0.24609375q-0.6328125,0.59765625-1.880859375,1.51171875t-1.599609375,1.23046875q1.44140625-0.984375,3.90234375-2.42578125q-0.2109375-0.2109375-0.421875-0.31640625z M190.127578125,134.1015625q0.140625,0.03515625,0.38671875-0.052734375t0.3515625-0.087890625q0.140625,0,0.2109375,0.0703125q0.140625,0.10546875,0.24609375,0.24609375q0.140625,0.140625,0.52734375,0.17578125l0.24609375,0q0.0703125,0,0.17578125-0.03515625t0.17578125-0.03515625q0.2109375,0,0.421875,0.2109375q0.10546875-0.0703125,0.38671875-0.087890625t0.3515625-0.052734375q0.140625-0.0703125,0.3515625-0.0703125q0.10546875,0,0.333984375,0.03515625t0.369140625,0.03515625l0.140625,0q0.5625-0.140625,1.16015625-0.140625q0.140625,0,0.3515625,0.03515625t0.31640625,0.03515625q0.31640625,0,0.7734375-0.28125q0.140625-0.0703125,0.4921875-0.404296875t0.52734375-0.333984375t0.421875,0.24609375q0.03515625-0.10546875-0.2109375-0.369140625t-0.544921875-0.5625t-0.333984375-0.369140625q-0.0703125-0.03515625-0.38671875,0.193359375t-0.38671875,0.228515625q-0.0703125,0.0703125-0.2109375,0.0703125q-0.10546875,0-0.24609375-0.140625t-0.140625-0.28125q0-0.03515625,0.03515625-0.0703125t0.03515625-0.0703125q0.03515625-0.17578125,0.59765625-0.73828125q-0.87890625-0.87890625-1.08984375-1.30078125q-1.08984375,0.52734375-1.65234375,0.52734375q-0.3515625,0-0.3515625-0.2109375q0-0.10546875,0.140625-0.52734375q-0.28125,0.140625-0.3515625,0.140625q-0.38671875,0-0.38671875-0.4921875q0-0.2109375,0.0703125-0.28125q0.0703125-0.17578125,0.369140625-0.4921875t0.298828125-0.52734375q0-0.140625-0.0703125-0.28125q-0.2109375-0.140625-0.4921875-0.5625l-0.3515625,0.28125q-0.31640625,0.31640625-0.580078125,0.45703125t-0.439453125,0.10546875q-0.31640625,0-0.31640625-0.2109375q0-0.17578125,0.45703125-0.6328125q0.6328125-0.4921875,0.6328125-0.73828125l0-0.0703125q-0.03515625-0.0703125-0.140625-0.17578125t-0.140625-0.17578125q-0.10546875-0.17578125-0.4921875-0.439453125t-0.38671875-0.369140625q0.10546875-0.80859375-0.9140625-1.0546875q-0.2109375-0.0703125-0.298828125-0.228515625t-0.10546875-0.38671875t-0.052734375-0.333984375q-0.17578125-0.10546875-0.421875-0.5625q-0.2109375-0.3515625-0.615234375-1.0546875t-0.615234375-1.0546875q-0.0703125-0.0703125-0.228515625-0.369140625t-0.28125-0.474609375t-0.263671875-0.17578125q-0.03515625,0-0.0703125,0.03515625t-0.0703125,0.03515625q-0.140625,0.0703125-0.439453125,0.421875t-0.580078125,0.45703125q0.10546875,0.703125-0.94921875,1.01953125q-0.45703125,0.17578125-0.826171875,1.037109375t-0.439453125,1.529296875q0.0703125,0.0703125,0.0703125,0.24609375q0,0.2109375-0.0703125,0.28125l0.0703125,0.140625l0.0703125,0q0.140625,0,0.2109375,0.2109375q0.0703125,0.0703125,0.0703125,0.2109375t-0.17578125,0.38671875t-0.17578125,0.3515625l0,0.0703125q0.10546875,0.52734375,0.404296875,1.740234375t0.369140625,1.845703125q0.10546875,0.52734375,0.861328125,1.16015625t0.931640625,0.94921875q1.40625,1.7578125,2.8828125,2.14453125z M205.174453125,126.47265625l-0.0703125,0q-0.140625,0-0.5625,0.421875q0.2109375-0.03515625,0.421875,0.087890625t0.28125,0.123046875q0.17578125,0,0.31640625-0.140625q-0.28125-0.28125-0.38671875-0.4921875z M222.963515625,112.4453125l-1.51171875,1.0546875q0.03515625,0,0.0703125-0.03515625t0.17578125-0.123046875t0.263671875-0.17578125t0.28125-0.193359375t0.28125-0.193359375t0.228515625-0.158203125t0.17578125-0.10546875l0.03515625-0.0703125q-4.39453125,2.91796875-8.40234375,5.94140625q5.58984375-3.90234375,9.6328125-5.94140625q-0.10546875-0.10546875-0.28125-0.10546875q-0.10546875,0-0.369140625,0.087890625t-0.369140625,0.087890625q-0.03515625,0-0.10546875-0.03515625t-0.10546875-0.03515625z M217.197890625,121.9375q0-0.140625,0.0703125-0.140625q-0.17578125,0.0703125-1.423828125,0.826171875t-1.951171875,1.037109375q-0.28125,0.17578125-0.861328125,0.369140625t-0.720703125,0.263671875q-0.28125,0.17578125-0.896484375,0.544921875t-0.896484375,0.544921875t-0.791015625,0.615234375t-0.791015625,0.615234375q0.0703125,0.0703125,0.0703125,0.140625q1.08984375-0.59765625,3.076171875-1.564453125t2.548828125-1.248046875q1.1953125-0.59765625,1.44140625-0.703125q0.17578125-0.0703125,0.298828125-0.333984375t0.193359375-0.333984375q0.10546875-0.140625,0.333984375-0.31640625t0.298828125-0.31640625z M199.865859375,132.30859375l0.0703125-0.0703125l-0.0703125,0.0703125q1.265625-1.125,3.515625-3.234375q-3.4453125,1.93359375-4.25390625,2.42578125q0.10546875,0.140625,0.369140625,0.404296875t0.369140625,0.404296875z M201.658828125,129.21484375l0.5625-0.38671875q-0.140625,0.10546875-0.5625,0.38671875q1.96875-0.94921875,2.6015625-1.51171875q-0.7734375,0.3515625-2.6015625,1.51171875z M209.287734375,128.125l-1.51171875,0.87890625l1.51171875-0.87890625q-4.46484375,2.49609375-7.27734375,4.18359375q0.66796875-0.3515625,1.93359375-1.08984375t1.8984375-1.08984375q0.45703125-0.24609375,1.30078125-0.755859375t1.265625-0.755859375q0.140625-0.0703125,0.404296875-0.2109375t0.404296875-0.2109375l0.2109375-0.140625q-0.0703125,0-0.140625,0.0703125z M225.776015625,112.65625q-0.2109375-0.03515625-0.474609375,0.03515625t-0.421875,0.140625t-0.4921875,0.24609375t-0.404296875,0.2109375q0.28125-0.10546875,0.94921875-0.28125t1.0546875-0.3515625l-0.2109375,0z M212.803359375,118.9140625l0.38671875-0.3515625l-0.45703125,0.3515625l0.0703125,0q0.38671875-0.31640625,4.32421875-3.3046875q-0.59765625,0.3515625-1.775390625,1.037109375t-1.740234375,1.037109375q-0.24609375,0.140625-0.544921875,0.298828125t-0.615234375,0.3515625t-0.4921875,0.298828125q-0.140625,0.140625-0.140625,0.2109375q0,0.10546875,0.10546875,0.333984375t0.10546875,0.369140625q0.2109375-0.2109375,0.7734375-0.6328125z M206.053359375,127.7734375q0-0.03515625-0.94921875,0.7734375t-1.16015625,1.01953125q1.30078125-0.80859375,2.4609375-1.44140625z M204.330703125,126.19140625l-1.8984375,1.125q1.7578125-1.0546875,1.8984375-1.125q-4.4296875,2.77734375-6.50390625,3.796875q0.0703125,0.0703125,0.228515625,0.263671875t0.228515625,0.263671875q0.3515625-0.24609375,1.037109375-0.720703125t1.037109375-0.720703125q0.17578125-0.140625,1.6875-1.212890625t2.28515625-1.669921875z M197.334609375,129.35546875l0.0703125,0l-0.0703125,0q0.140625-0.0703125,0.3515625-0.28125q-0.3515625,0.2109375-0.3515625,0.28125z M190.338515625,135.96484375l-0.2109375,0.2109375l0.2109375-0.2109375q-0.3515625,0.3515625-1.107421875,1.0546875t-1.107421875,1.0546875q2.07421875-1.4765625,2.8125-1.8984375q-0.52734375-0.17578125-0.59765625-0.2109375z M194.029921875,136.38671875l-0.0703125,0l0.0703125,0q-0.31640625,0.31640625-0.3515625,0.38671875q0.10546875-0.0703125,0.31640625-0.228515625t0.31640625-0.228515625q-0.2109375,0-0.28125,0.0703125z M220.432265625,112.4453125l-0.0703125,0l0.17578125,0l-0.10546875,0q-0.45703125-0.03515625-1.107421875,0.31640625t-1.529296875,1.001953125t-1.01953125,0.755859375q-2.6015625,1.6875-3.90234375,2.7421875q6.046875-3.48046875,8.71875-5.0625l-0.0703125,0q-0.10546875,0-0.5625,0.123046875t-0.52734375,0.123046875z M210.799453125,111.98828125q-0.31640625-0.03515625-0.650390625,0.263671875t-0.73828125,0.87890625t-0.474609375,0.650390625q0.03515625,0,0.38671875-0.263671875t0.73828125-0.544921875t0.861328125-0.52734375t0.755859375-0.24609375t0.28125,0.38671875l0,0.140625q-0.0703125,0.2109375-0.439453125,0.544921875t-0.9140625,0.720703125t-0.615234375,0.45703125q-1.0546875,0.84375-2.07421875,1.86328125l0.140625,0q0.140625,0,0.421875,0.0703125q0.31640625-0.2109375,0.73828125-0.421875q0.10546875-0.0703125,0.73828125-0.439453125t0.9140625-0.580078125q3.9375-2.6015625,4.25390625-2.8125q-0.140625-0.0703125-0.4921875-0.0703125q-0.2109375,0-0.66796875,0.0703125t-0.703125,0.0703125q-0.7734375,0-1.08984375-0.2109375q-0.140625,0.0703125-0.80859375,0.0703125q-0.4921875,0-0.5625-0.0703125z M206.756484375,112.5859375l0-0.0703125l0,0.0703125q0.10546875,0.2109375,0.38671875,0.2109375q0.140625,0,0.369140625-0.10546875t0.439453125-0.263671875t0.24609375-0.158203125q-0.0703125-0.0703125-0.28125-0.0703125q-0.03515625,0-0.193359375,0.0703125t-0.369140625,0.0703125q-0.10546875,0-0.28125-0.03515625l-0.17578125-0.03515625q-0.03515625,0-0.140625,0.31640625z M206.897109375,113.359375l0.0703125,0l-0.0703125,0q-0.0703125,0.66796875-0.0703125,1.30078125q0,0.421875,0.03515625,1.01953125l0.03515625,0.5625q0.17578125-0.140625,0.544921875-0.474609375t0.544921875-0.474609375q-0.140625,0.0703125-0.3515625,0.0703125q-0.28125,0-0.28125-0.28125q0-0.31640625,0.3515625-0.84375q0.24609375-0.28125,0.720703125-0.861328125t0.720703125-0.861328125q-0.140625,0.10546875-0.38671875,0.28125l-0.369140625,0.263671875t-0.298828125,0.193359375t-0.3515625,0.140625t-0.38671875,0.03515625q-0.0703125,0-0.228515625-0.03515625t-0.228515625-0.03515625z M210.799453125,116.734375l0.0703125,0l-0.0703125,0l0.140625,0q0.38671875,0,1.37109375-0.5625q0.421875-0.24609375,1.283203125-0.755859375t1.318359375-0.755859375q0.66796875-0.421875,2.021484375-1.212890625t2.056640625-1.177734375l-0.0703125,0q-0.0703125,0-0.263671875,0.03515625t-0.298828125,0.03515625q-0.2109375,0-0.28125-0.0703125q-0.2109375-0.0703125-0.66796875-0.0703125l-0.3515625,0q-0.73828125,0-1.58203125,0.52734375q-2.70703125,1.8984375-5.765625,3.7265625q0.421875,0.17578125,1.08984375,0.28125z M211.959609375,117.19140625q-0.10546875,0.0703125-0.24609375,0.140625t-0.2109375,0.123046875t-0.0703125,0.158203125l0,0.140625q0.24609375-0.38671875,0.52734375-0.5625z M201.588515625,122.7109375q-0.84375-0.84375-1.01953125-1.37109375q-0.52734375,0.45703125-2.8828125,2.4609375q1.86328125-1.125,2.6015625-1.30078125l0.140625,0q1.01953125,0,1.01953125,0.3515625q0,0.2109375-0.2109375,0.31640625q-3.41015625,2.77734375-5.4140625,4.60546875q0,0.0703125,0.0703125,0.0703125q2.53125-1.72265625,4.04296875-2.6015625q1.30078125-0.6328125,1.72265625-0.703125q0.52734375,0,0.703125,0.28125q0.140625,0.24609375-0.158203125,0.52734375t-0.84375,0.544921875t-0.580078125,0.298828125q-2.28515625,1.37109375-4.078125,2.49609375q0.0703125,0.0703125,0.140625,0.0703125q6.22265625-3.65625,6.6796875-3.9375q-0.28125-0.3515625-0.966796875-1.0546875t-0.966796875-1.0546875z M196.701796875,120.35546875l0.28125-0.2109375l-0.421875,0.3515625q0-0.0703125,0.140625-0.140625q0.03515625-0.03515625,0.6328125-0.3515625t0.94921875-0.615234375t0.3515625-0.544921875q0-0.140625-0.140625-0.28125q-1.65234375,1.65234375-3.83203125,3.1640625q0.421875-0.24609375,1.1953125-0.791015625t0.84375-0.580078125z M197.053359375,116.453125q-0.2109375-0.2109375-2.548828125,1.72265625t-2.654296875,2.6015625q0.9140625-0.3515625,3.26953125-1.79296875q0.10546875-0.0703125,1.3359375-0.87890625q0.10546875-0.0703125,0.439453125-0.263671875t0.4921875-0.369140625t0.087890625-0.3515625q-0.28125-0.31640625-0.421875-0.66796875z M197.615859375,97.5390625q0.5625-0.31640625,1.599609375-0.94921875t1.564453125-0.94921875q-0.10546875-0.03515625-0.38671875-0.140625t-0.45703125-0.2109375l-0.2109375,0q-0.17578125,0-1.01953125,0.421875q-0.6328125,0.3515625-1.93359375,1.125t-1.96875,1.125q0.10546875,0.2109375,0.31640625,0.2109375q0.140625,0,0.28125-0.140625q0.0703125-0.0703125,0.2109375-0.0703125t0.421875,0.140625q0.28125,0,0.3515625,0.0703125q0.28125-0.0703125,1.23046875-0.6328125z M197.756484375,94.65625q-0.2109375,0-0.5625-0.158203125t-0.421875-0.158203125q-0.24609375,0.17578125-0.791015625,0.544921875t-0.791015625,0.544921875q-3.69140625,2.42578125-4.8515625,3.234375q-4.21875,2.8828125-6.75,4.9921875q6.43359375-3.69140625,8.5078125-5.1328125q0.2109375-0.10546875,0.720703125-0.298828125t0.791015625-0.404296875q0.24609375-0.2109375,1.86328125-1.01953125q2.98828125-1.7578125,3.234375-1.86328125q-0.140625-0.03515625-0.439453125-0.158203125t-0.509765625-0.123046875z M193.151015625,94.33984375l-0.0703125,0l0.0703125,0q-0.140625-0.140625-0.2109375-0.140625q-0.03515625,0-0.0703125,0.03515625t-0.0703125,0.03515625q0.28125,0.10546875,0.28125,0.31640625q0,0.38671875-0.931640625,1.142578125t-1.283203125,0.931640625q2.42578125-1.4765625,4.39453125-2.53125q-0.3515625,0-1.0546875,0.10546875t-1.0546875,0.10546875z M191.850234375,94.515625l-0.0703125,0.0703125l0.0703125,0l0-0.0703125z M183.377578125,102.77734375q-0.0703125,0.0703125-0.0703125,0.2109375q2.109375-1.6875,7.62890625-5.51953125q-0.703125,0.45703125-2.109375,1.265625t-2.07421875,1.23046875q-1.96875,1.30078125-2.390625,1.30078125q-0.2109375,0-0.2109375-0.3515625q0.03515625-0.38671875,0.421875-0.7734375t1.072265625-0.80859375t0.755859375-0.45703125q0.6328125-0.421875,1.828125-1.248046875t1.828125-1.248046875q-0.17578125,0.10546875-0.703125,0.38671875t-0.826171875,0.439453125t-0.703125,0.45703125t-0.650390625,0.580078125q-0.6328125,0.6328125-1.23046875,0.5625q-0.140625,0.0703125-1.265625,1.01953125q-0.38671875,0.28125-0.6328125,0.66796875t-0.31640625,0.650390625t-0.17578125,0.84375t-0.17578125,0.791015625z M183.447890625,106.01171875q-0.03515625-0.03515625,1.177734375-0.791015625t2.583984375-1.599609375t1.546875-0.984375q0.03515625-0.03515625,0.4921875-0.2109375t0.7734375-0.3515625t0.38671875-0.31640625q0.17578125-0.4921875,0.38671875-0.703125q0-0.45703125,0.140625-0.87890625q-3.234375,1.86328125-6.328125,3.69140625q-0.140625,0.0703125-0.509765625,0.263671875t-0.509765625,0.298828125t-0.28125,0.333984375t-0.140625,0.544921875q0.10546875,0.45703125,0.28125,0.703125z M190.197890625,102.63671875l-0.6328125,0.3515625q0,0.03515625,0.158203125-0.03515625t0.31640625-0.17578125t0.158203125-0.140625q-1.51171875,0.7734375-4.0078125,2.4609375q-0.80859375,0.45703125-2.53125,1.65234375l0,0.140625q0,0.17578125,0.10546875,0.6328125t0.10546875,0.59765625q0.59765625-0.45703125,2.056640625-1.4765625t2.197265625-1.6171875q1.01953125-0.6328125,2.28515625-1.7578125z M174.377578125,129.35546875q3.97265625-2.8125,4.39453125-3.09375q2.28515625-1.72265625,4.1484375-3.3046875q-4.0078125,2.49609375-6.890625,3.796875q-0.10546875,0.03515625-0.9140625,0.333984375t-1.01953125,0.544921875q0,0.28125,0.140625,0.861328125t0.140625,0.861328125z M177.471328125,128.7578125q-0.80859375,0.4921875-0.80859375,0.59765625q0.31640625-0.24609375,0.80859375-0.59765625q-0.10546875,0.03515625-0.4921875,0.228515625t-0.755859375,0.404296875t-0.7734375,0.439453125t-0.615234375,0.474609375t-0.17578125,0.421875q0.4921875-0.31640625,1.423828125-0.984375t1.388671875-0.984375z M179.826796875,132.94140625q-0.6328125,0.3515625-0.6328125,0.421875l0.6328125-0.421875q-3.26953125,1.96875-3.375,2.0390625q0.140625,0.140625,0.28125,0.421875q0.59765625-0.45703125,3.69140625-2.8125q-0.45703125,0.31640625-0.59765625,0.3515625z M178.033828125,136.7734375q0.31640625,0.2109375,0.52734375,0.421875l0.6328125-0.6328125q0.94921875-0.94921875,1.79296875-1.6875q0.17578125-0.17578125,0.94921875-0.80859375t1.212890625-1.107421875t0.650390625-1.001953125q-0.38671875,0.10546875-0.84375,0.333984375t-0.7734375,0.439453125t-0.826171875,0.580078125t-0.720703125,0.509765625q-0.73828125,0.45703125-3.375,2.28515625q0.2109375,0.10546875,0.7734375,0.66796875z M179.967421875,137.8984375l0.10546875,0l-0.10546875,0l0.17578125,0q0-0.0703125-0.0703125-0.0703125q-0.03515625,0-0.10546875,0.0703125z M181.127578125,138.56640625q0.140625,0.0703125,0.24609375,0.140625t0.140625,0.10546875t0.0703125,0.03515625q0.140625,0,0.28125-0.140625q0.140625-0.2109375,0.421875-0.4921875q0.5625-0.4921875,1.51171875-1.16015625q0.45703125-0.3515625,1.705078125-1.30078125t1.880859375-1.51171875q-0.140625-0.10546875-0.966796875,0.4921875t-1.775390625,1.353515625t-1.0546875,0.826171875q-0.140625,0.10546875-0.4921875,0.3515625t-0.544921875,0.38671875t-0.509765625,0.31640625t-0.615234375,0.263671875t-0.580078125,0.123046875q0.10546875,0.2109375,0.28125,0.2109375z M184.818984375,140.1484375l-0.0703125,0l0.0703125,0q0.140625,0.03515625,0.439453125-0.24609375t0.615234375-0.703125t0.38671875-0.4921875q2.8828125-2.53125,3.375-3.0234375q-0.31640625,0-0.73828125-0.2109375q-0.140625,0.0703125-0.38671875,0.2109375t-0.38671875,0.2109375q-0.28125,0.17578125-0.826171875,0.509765625t-0.826171875,0.509765625q-1.72265625,1.125-4.04296875,2.671875q0.24609375,0.2109375,0.650390625,0.298828125t0.931640625,0.140625t0.80859375,0.123046875z M186.541640625,140.4296875l0.0703125,0l-0.0703125,0q0.140625-0.0703125,0.28125-0.0703125q0.0703125,0,0.228515625,0.03515625t0.263671875,0.03515625q0.24609375,0,0.59765625-0.3515625q0.28125-0.2109375,0.861328125-0.615234375t0.861328125-0.615234375q2.1796875-1.44140625,3.4453125-2.53125l-0.3515625,0q-0.80859375,0-2.00390625,0.80859375q-2.390625,1.546875-4.53515625,3.1640625l0.28125,0.140625l0.0703125,0z M189.635390625,141.02734375q0.140625-0.0703125,0.4921875-0.0703125q0.38671875,0,0.52734375,0.140625q0.0703125,0,0.193359375-0.17578125t0.263671875-0.38671875t0.17578125-0.24609375q0.421875-0.4921875,2.6015625-2.8828125q-4.67578125,3.26953125-4.921875,3.4453125q0.10546875,0,0.333984375,0.087890625t0.333984375,0.087890625z M198.283828125,138.28515625l-0.2109375,0.140625l1.3359375-0.87890625q-0.24609375,0.17578125-1.125,0.73828125q-0.4921875,0.31640625-1.494140625,1.001953125t-1.529296875,1.001953125q0.3515625-0.0703125,0.984375-0.123046875t1.107421875-0.158203125t0.931640625-0.3515625q4.0078125-2.63671875,4.95703125-3.33984375q0.421875-0.28125,5.02734375-3.3046875q0.03515625-0.03515625,0.439453125-0.31640625t0.45703125-0.333984375t0.38671875-0.298828125t0.439453125-0.333984375t0.3515625-0.31640625t0.369140625-0.38671875t0.28125-0.38671875t0.298828125-0.439453125q-1.65234375,0.66796875-3.498046875,1.740234375t-3.111328125,1.916015625t-3.33984375,2.302734375t-3.05859375,2.126953125z M195.260390625,142.36328125l0.0703125,0l-0.0703125,0q0.28125,0,0.421875-0.0703125l-0.2109375,0q-0.0703125,0-0.2109375,0.0703125z M205.455703125,139.515625l0,0.0703125l0-0.0703125l-0.140625,0.28125q0.03515625,0,0.17578125-0.03515625t0.2109375-0.03515625q-0.03515625-0.03515625-0.123046875-0.10546875t-0.123046875-0.10546875z M209.076796875,139.65625q0.2109375,0.03515625,0.3515625-0.052734375t0.298828125-0.333984375t0.263671875-0.3515625q0.28125-0.2109375,1.6875-1.44140625q1.01953125-0.87890625,2.77734375-2.49609375q-0.140625-0.0703125-0.615234375,0.263671875t-1.037109375,0.826171875l-0.5625,0.4921875q-1.8984375,1.30078125-4.18359375,2.70703125q0.17578125,0.0703125,0.509765625,0.193359375t0.509765625,0.193359375z M213.401015625,140.2890625l0.0703125,0l-0.0703125,0q0.28125-0.140625,0.3515625-0.140625t0.17578125,0.03515625t0.17578125,0.03515625q0.6328125-0.45703125,0.80859375-0.5625q0.31640625-0.2109375,0.931640625-0.685546875t0.931640625-0.685546875q2.77734375-2.00390625,3.76171875-2.7421875q0.59765625-0.45703125,1.775390625-1.37109375t1.810546875-1.37109375q0.94921875-0.66796875,1.51171875-1.16015625q0.03515625-0.0703125,0.421875-0.31640625t0.421875-0.31640625q-0.52734375,0.38671875-2.162109375,1.599609375t-2.337890625,1.72265625t-2.1796875,1.546875t-2.443359375,1.634765625t-2.267578125,1.3359375t-2.49609375,1.30078125q0.52734375,0,0.80859375,0.140625z M223.701796875,137.3359375l0,0.0703125l0-0.0703125q-0.03515625,0.2109375-0.580078125,0.73828125t-0.580078125,0.5625q0.140625-0.03515625,0.45703125-0.140625t0.5625-0.2109375q-0.10546875-0.10546875-0.10546875-0.28125t0.24609375-0.66796875z M224.123671875,135.47265625l0.0703125-0.0703125l-0.5625,0.3515625q0.140625-0.0703125,0.4921875-0.28125q0.421875-0.31640625,0.7734375-0.66796875q-6.22265625,3.65625-9.6328125,5.5546875q0.03515625,0,0.10546875,0.03515625t0.10546875,0.03515625q0.3515625,0,1.51171875-0.703125q0.45703125-0.24609375,1.30078125-0.720703125t1.30078125-0.720703125q1.6875-0.94921875,4.53515625-2.8125z M218.850234375,140.1484375l0.0703125-0.0703125l-0.0703125,0.0703125q0.38671875-0.28125,1.3359375-0.703125t1.3359375-0.80859375q0.4921875-0.5625,1.51171875-1.58203125q-2.28515625,1.44140625-5.30859375,3.1640625l0.140625,0q0.10546875,0,0.38671875-0.03515625t0.38671875-0.03515625l0.2109375,0z M226.338515625,131.95703125q0,0.0703125-0.193359375,0.228515625t-0.439453125,0.333984375t-0.28125,0.2109375q-0.28125,0.2109375-0.861328125,0.650390625t-0.861328125,0.650390625q-0.73828125,0.5625-2.14453125,1.58203125t-2.109375,1.58203125q1.3359375-0.80859375,4.39453125-2.53125q0.984375-0.59765625,1.72265625-0.984375q0.3515625-0.17578125,0.7734375-1.72265625z"/><path fill="#" d=""/></svg>
