<?xml version="1.0" encoding="utf-8"?>
<svg width="56" height="44" viewBox="0 0 56 44" xmlns="http://www.w3.org/2000/svg" xmlns:xlink="http://www.w3.org/1999/xlink" aria-hidden="true" role="img" class="iconify iconify--noto" preserveAspectRatio="xMidYMid meet" version="1.1">
  <text x="8" y="36" fill="rgb(6, 55, 30)" opacity=".92" font-size="48" font-family="Arial Black, Gadget, sans-serif" font-weight="900">
    K
  </text>
  <path d="M4.822 16.874s1.565 -0.403 2.154 -0.39c0.742 0.016 1.59 0.224 2.042 0.496 0.451 0.269 2.131 -0.128 2.131 -0.128s0.97 0.067 0.63 -0.653c-0.166 -0.355 -1.949 -0.893 -3.018 -1.059 -1.395 -0.218 -3.312 0.246 -3.312 0.246s-0.134 -1.651 -0.518 -2.522c-0.218 -0.499 -0.97 -2.163 -1.622 -2.838 -0.426 -0.442 -1.034 -0.918 -1.555 -0.63 -0.653 0.362 0.067 1.622 0.63 2.544s1.402 1.904 1.69 2.704c0.208 0.563 0.749 2.23 0.749 2.23" fill="#6b7e37"/>
  <path d="M6.973 13.101s0.698 -1.69 0.81 -2.499 0.157 -2.275 -0.134 -3.062c-0.192 -0.515 -0.563 -0.88 -1.014 -0.675 -0.269 0.122 -0.864 0.8 -0.675 2.118 0.179 1.261 0.317 2.253 0.317 3.222 0 0.653 -0.112 1.51 -0.112 1.51z" fill="#6b7e37"/>
  <path d="M6.378 14.374s0.925 -0.179 2.003 -0.157 3.245 0.496 4.528 0.451 1.488 -0.653 1.126 -1.126 -1.328 -1.238 -3.2 -1.059c-1.418 0.138 -3.648 0.89 -3.648 0.89z" fill="#6b7e37"/>
  <path d="M8.045 23.654s-0.022 0.339 -0.246 0.518c-0.24 0.192 -0.541 0.246 -0.541 0.246s-1.824 -1.622 -2.454 -3.514c-0.627 -1.885 -0.394 -3.606 -0.362 -3.965 0.067 -0.72 0.474 -1.645 0.854 -2.253 0.528 -0.835 1.488 -1.846 1.958 -2.298 0.474 -0.451 1.194 -1.261 1.734 -1.846 0.442 -0.477 1.706 -1.814 2.163 -2.163 0.854 -0.653 2.118 -1.488 2.659 -0.742 0.541 0.742 -0.586 1.981 -1.488 2.589s-2.141 1.373 -2.726 1.645c-0.323 0.15 -1.44 0.88 -2.003 1.488s-1.51 1.622 -1.846 2.589c-0.339 0.97 -0.429 1.898 -0.317 3.222 0.112 1.328 0.902 2.723 1.149 3.085 0.458 0.678 1.466 1.398 1.466 1.398" fill="#6b7e37"/>
  <path d="M16.4 20.454s-0.765 -2.365 0.269 -5.52c1.069 -3.254 2.726 -5.226 3.965 -6.262 2.102 -1.76 3.536 -2.051 4.099 -1.555 0.528 0.464 0.518 1.149 0.339 1.936 -0.106 0.464 -0.787 1.466 -0.787 1.466s0.422 -0.01 0.787 0.474c0.563 0.742 0.269 2.499 0.269 2.499l-2.566 6.195 -3.514 2.186z" fill="#b0b0b0"/>
  <path d="M18.781 20.944s-2.019 -0.902 -2.762 -2.042c-1.44 -2.208 -3.526 -2.688 -4.835 -2.672 -3.213 0.032 -4.416 2.192 -4.416 2.192l0.15 2.493s1.382 1.802 1.44 2.074 -0.435 2.147 0.81 5.645c1.002 2.81 4.506 5.738 8.8 6.278s5.856 0.09 5.856 0.09 1.907 3.44 2.237 3.408c0.33 -0.029 0.992 -0.765 1.606 -1.037 0.96 -0.422 2.854 -1.283 4.026 -2.749 1.981 -2.477 1.629 -4.035 2.086 -4.986 0.39 -0.81 0.765 -1.382 0.707 -1.683s-1.712 -0.496 -2.704 -0.541c-0.723 -0.032 -1.578 -0.09 -2.253 -0.179 -0.579 -0.077 -1.293 -0.464 -1.293 -0.464l1.981 -1.651 0.362 -2.704 2.013 -1.834 0.15 -1.862 2.762 -1.891 1.651 -2.314v-1.923l1.261 -2.074s0.691 -1.376 0.48 -1.558 -0.614 -0.416 -1.35 0.054c-0.269 0.173 0.445 -0.896 0.832 -1.494 0.496 -0.765 0.614 -1.59 0.317 -1.891 -0.301 -0.301 -0.63 -0.317 -2.23 0.112 -2.083 0.557 -4.864 1.472 -8.771 4.957S18.781 20.944 18.781 20.944" fill="#e0e0e0"/>
  <path d="M38.685 8.826s-0.189 1.488 -1.066 2.442c-0.973 1.056 -2.659 2.275 -3.379 2.659s-2.589 1.238 -2.883 1.35 -0.742 0.362 -0.608 0.675c0.134 0.317 0.451 0.362 0.902 0.157 0.451 -0.202 2.499 -1.27 2.973 -1.533 0.541 -0.301 1.878 -1.11 1.981 -0.72 0.122 0.451 -0.778 1.629 -1.853 2.704 -1.261 1.261 -3.014 2.208 -3.578 2.454s-1.418 0.586 -1.69 0.698c-0.269 0.112 -0.88 0.362 -0.742 0.765 0.134 0.406 0.947 0.122 1.229 0.035 0.653 -0.202 2.24 -1.114 2.307 -0.89s-0.09 0.787 -0.653 1.44 -2.298 1.555 -2.906 1.891 -0.854 0.429 -1.037 0.496c-0.179 0.067 -0.653 0.224 -0.563 0.653s0.573 0.269 0.822 0.179c0.17 -0.061 1.882 -0.925 2.061 -0.992s0.246 0.608 0 1.136c-0.224 0.483 -0.947 1.162 -1.667 1.747 -0.566 0.461 -1.306 0.88 -1.488 0.97 -0.179 0.09 -0.742 0.384 -0.63 0.675 0.112 0.294 0.541 0.317 1.104 0.045 0.563 -0.269 3.443 -2.291 3.738 -3.875 0.157 -0.845 0.045 -1.306 0.045 -1.306s1.555 -1.418 1.846 -2.163c0.294 -0.742 0.246 -1.418 0.246 -1.418s1.942 -1.546 2.947 -2.704c0.906 -1.043 1.475 -2.304 1.581 -2.89 0.093 -0.512 0.022 -1.005 0.022 -1.005s1.059 -1.533 1.328 -2.432c0.301 -0.97 -0.39 -1.245 -0.39 -1.245" fill="#b0b0b0"/>
  <path d="M38.362 5.43s0.09 0.653 -0.224 1.395c-0.502 1.181 -1.648 2.07 -2.566 2.637 -0.992 0.608 -2.23 1.149 -2.432 1.261s-0.55 0.371 -0.406 0.72c0.157 0.384 0.608 0.224 0.88 0.09 0.269 -0.134 3.29 -1.846 3.875 -2.432 0.397 -0.397 1.395 -1.306 1.622 -2.253 0.406 -1.728 -0.749 -1.418 -0.749 -1.418" fill="#b0b0b0"/>
  <path d="M11.229 19.891c0 0.515 -0.336 0.96 -0.842 0.96s-0.922 -0.451 -0.992 -0.96c-0.074 -0.541 0.32 -0.954 0.826 -0.976 0.662 -0.029 1.008 0.464 1.008 0.976" fill="#2d2d2d"/>
  <path d="M6.979 18.134s-4.01 1.44 -3.981 1.741c0.019 0.179 1.741 0.842 1.741 0.842l-0.067 -0.294 1.075 0.189 0.195 0.419 1.293 0.285s0.106 -1.098 0.016 -1.936c-0.083 -0.758 -0.272 -1.245 -0.272 -1.245" fill="#ffc300"/>
</svg>
